<svg width="66" height="24" viewBox="0 0 66 24" fill="none" xmlns="http://www.w3.org/2000/svg">
<g clip-path="url(#clip0_129_498)">
<path opacity="0.977" fill-rule="evenodd" clip-rule="evenodd" d="M23.6156 -0.0205078C24.8256 -0.0205078 26.0356 -0.0205078 27.2456 -0.0205078C27.2387 1.72699 27.2456 3.47443 27.2663 5.22181C28.1483 4.34286 29.214 3.99474 30.4631 4.17744C31.9444 4.474 32.8587 5.35455 33.2063 6.81908C33.2742 7.08816 33.3154 7.36117 33.33 7.6382C33.3506 9.91803 33.3575 12.1979 33.3506 14.4778C32.1406 14.4778 30.9306 14.4778 29.7206 14.4778C29.7401 12.4696 29.7194 10.4628 29.6588 8.45731C29.4487 7.6531 28.933 7.34594 28.1119 7.53581C27.852 7.6162 27.6527 7.77323 27.5138 8.0068C27.4136 8.17226 27.3449 8.34976 27.3075 8.53922C27.247 10.5175 27.2264 12.4971 27.2456 14.4778C26.0356 14.4778 24.8256 14.4778 23.6156 14.4778C23.6156 9.64502 23.6156 4.81226 23.6156 -0.0205078Z" fill="#717680"/>
<path opacity="0.973" fill-rule="evenodd" clip-rule="evenodd" d="M61.6894 -0.0205078C63.1195 -0.0205078 64.5493 -0.0205078 65.9794 -0.0205078C65.9794 0.0340997 65.9794 0.0887073 65.9794 0.143315C64.732 3.1 63.4875 6.06247 62.2463 9.03069C62.2256 9.05116 62.205 9.07164 62.1844 9.09212C60.7683 9.1126 59.3518 9.11944 57.9356 9.1126C59.1752 6.06402 60.4263 3.01964 61.6894 -0.0205078Z" fill="#717680"/>
<path opacity="0.976" fill-rule="evenodd" clip-rule="evenodd" d="M15.6544 4.15698C16.6264 4.04554 17.5339 4.22984 18.3769 4.70989C18.6006 4.84991 18.7999 5.02053 18.975 5.22183C18.9956 4.93547 19.0025 4.64878 18.9956 4.36176C20.1644 4.36176 21.3331 4.36176 22.5019 4.36176C22.5019 7.73376 22.5019 11.1058 22.5019 14.4778C21.3331 14.4778 20.1644 14.4778 18.9956 14.4778C19.0025 14.1908 18.9956 13.9041 18.975 13.6177C18.3813 14.2571 17.6457 14.6189 16.7681 14.7031C14.7728 14.8082 13.2534 14.0232 12.21 12.3481C11.2267 10.4758 11.1992 8.59187 12.1275 6.69623C12.917 5.31816 14.0926 4.47177 15.6544 4.15698ZM16.5619 7.43343C18.0435 7.31499 18.8822 7.98392 19.0781 9.44026C19.0057 10.4329 18.497 11.0814 17.5519 11.3857C16.2547 11.5987 15.4091 11.0868 15.015 9.84982C14.8866 8.62909 15.4022 7.82362 16.5619 7.43343Z" fill="#717680"/>
<path opacity="0.977" fill-rule="evenodd" clip-rule="evenodd" d="M38.7131 4.15698C40.6349 3.97137 42.2643 4.55838 43.6012 5.91807C44.9464 7.63386 45.2352 9.51782 44.4675 11.5699C43.5773 13.4216 42.0989 14.466 40.0331 14.703C37.6825 14.8774 35.8881 13.9833 34.65 12.0205C33.8661 10.4342 33.8111 8.8233 34.485 7.18769C35.3583 5.44016 36.7677 4.4299 38.7131 4.15698ZM39.2906 7.43343C40.5834 7.48147 41.2983 8.14355 41.4356 9.41977C41.361 10.4988 40.7974 11.1541 39.7444 11.3856C38.844 11.4813 38.1634 11.1469 37.7025 10.3822C37.2615 9.3282 37.4884 8.44765 38.3831 7.74059C38.6702 7.57681 38.9727 7.47442 39.2906 7.43343Z" fill="#717680"/>
<path opacity="0.977" fill-rule="evenodd" clip-rule="evenodd" d="M50.0981 4.15701C52.0723 3.95366 53.7289 4.568 55.0687 6.00001C56.3046 7.63136 56.5933 9.41977 55.935 11.3652C55.0914 13.3452 53.5858 14.4579 51.4181 14.7031C49.7574 14.8451 48.3 14.3809 47.0456 13.3106C45.6938 11.946 45.1782 10.3146 45.4987 8.41639C46.0845 5.9851 47.6173 4.56529 50.0981 4.15701ZM50.6756 7.43346C51.8677 7.45009 52.576 8.0371 52.8 9.19455C52.8833 10.0327 52.5739 10.6811 51.8719 11.1399C50.9565 11.5881 50.1245 11.472 49.3762 10.7918C48.7274 9.93671 48.7001 9.063 49.2937 8.17066C49.6613 7.74595 50.122 7.50022 50.6756 7.43346Z" fill="#717680"/>
<path opacity="0.972" fill-rule="evenodd" clip-rule="evenodd" d="M-0.0206299 4.36176C1.27194 4.35492 2.56444 4.36176 3.85687 4.38224C4.62556 6.29781 5.38869 8.21593 6.14625 10.1365C6.93099 8.22236 7.70789 6.30428 8.47687 4.38224C9.7616 4.34165 11.0404 4.35529 12.3131 4.42319C10.3871 8.99937 8.46899 13.5796 6.55875 18.1638C5.27616 18.2046 3.99052 18.2182 2.70187 18.2048C3.19418 16.9707 3.70293 15.7421 4.22812 14.5188C2.83502 11.1874 1.41877 7.87002 -0.0206299 4.56654C-0.0206299 4.49826 -0.0206299 4.43003 -0.0206299 4.36176Z" fill="#717680"/>
<path opacity="0.968" fill-rule="evenodd" clip-rule="evenodd" d="M58.8019 9.89079C60.1437 9.84963 61.003 10.464 61.38 11.7338C61.564 13.0272 61.0624 13.9487 59.8744 14.4983C58.6666 14.8631 57.6972 14.5423 56.9663 13.5358C56.3648 12.2479 56.6193 11.1626 57.7294 10.2799C58.0701 10.0877 58.4273 9.958 58.8019 9.89079Z" fill="#717680"/>
<path opacity="0.934" fill-rule="evenodd" clip-rule="evenodd" d="M29.4319 15.2969C30.4281 15.2689 30.9024 15.7467 30.855 16.7304C30.5957 17.4633 30.0801 17.7568 29.3081 17.6109C28.5834 17.3117 28.329 16.7861 28.545 16.0341C28.725 15.6433 29.0206 15.3975 29.4319 15.2969Z" fill="#717680"/>
<path opacity="0.954" fill-rule="evenodd" clip-rule="evenodd" d="M26.5444 15.3379C27.0509 15.2915 27.5391 15.3597 28.0088 15.5426C28.0294 16.1295 28.0363 16.7165 28.0294 17.3037C27.8148 17.242 27.5948 17.2011 27.3694 17.1809C26.7728 17.2136 26.4978 17.5276 26.5444 18.1228C27.0119 18.1228 27.4794 18.1228 27.9469 18.1228C27.9469 18.6962 27.9469 19.2696 27.9469 19.843C27.4794 19.843 27.0119 19.843 26.5444 19.843C26.5444 21.1809 26.5444 22.5187 26.5444 23.8566C25.8156 23.8566 25.0869 23.8566 24.3581 23.8566C24.3581 22.5187 24.3581 21.1809 24.3581 19.843C24.1106 19.843 23.8631 19.843 23.6156 19.843C23.6156 19.2696 23.6156 18.6962 23.6156 18.1228C23.8631 18.1228 24.1106 18.1228 24.3581 18.1228C24.3373 17.4411 24.5091 16.8131 24.8738 16.2389C25.3191 15.7278 25.8759 15.4275 26.5444 15.3379Z" fill="#717680"/>
<path opacity="0.954" fill-rule="evenodd" clip-rule="evenodd" d="M34.8356 17.959C36.2691 17.8606 37.0735 18.5159 37.2487 19.9249C37.2694 21.2354 37.2763 22.546 37.2694 23.8567C36.5406 23.8567 35.8119 23.8567 35.0831 23.8567C35.09 22.7235 35.0831 21.5904 35.0625 20.4573C34.8582 19.8998 34.4938 19.7701 33.9694 20.0683C33.8551 20.2064 33.7795 20.3633 33.7425 20.5392C33.7219 21.645 33.715 22.7508 33.7219 23.8567C32.9931 23.8567 32.2644 23.8567 31.5356 23.8567C31.5356 21.9454 31.5356 20.0341 31.5356 18.1229C32.2644 18.1229 32.9931 18.1229 33.7219 18.1229C33.715 18.2873 33.7219 18.4511 33.7425 18.6143C34.0366 18.2741 34.401 18.0557 34.8356 17.959Z" fill="#717680"/>
<path opacity="0.962" fill-rule="evenodd" clip-rule="evenodd" d="M41.0231 23.9795C40.6656 23.9795 40.3081 23.9795 39.9506 23.9795C38.6932 23.6166 37.9714 22.7838 37.785 21.4812C37.6182 20.2433 38.0101 19.2262 38.9606 18.43C39.8358 17.8672 40.7433 17.8126 41.6831 18.2662C41.8259 18.3671 41.9566 18.4831 42.075 18.6143C42.0956 18.4511 42.1026 18.2872 42.0956 18.1228C42.8105 18.1228 43.5258 18.1228 44.2406 18.1228C44.2406 20.0341 44.2406 21.9454 44.2406 23.8566C43.5258 23.8566 42.8105 23.8566 42.0956 23.8566C42.1026 23.6922 42.0956 23.5284 42.075 23.3652C41.7751 23.6607 41.4245 23.8654 41.0231 23.9795ZM40.7756 19.8839C41.5837 19.8263 42.0515 20.1949 42.1781 20.9897C42.0894 21.6649 41.7046 22.0335 41.0231 22.0955C40.2573 22.0111 39.8791 21.5878 39.8888 20.8259C39.9981 20.3336 40.2937 20.0197 40.7756 19.8839Z" fill="#717680"/>
<path opacity="0.955" fill-rule="evenodd" clip-rule="evenodd" d="M48.3244 17.959C49.6159 17.8315 50.4067 18.3912 50.6963 19.6382C50.7536 21.0436 50.7742 22.4497 50.7581 23.8566C50.0292 23.8566 49.3008 23.8566 48.5719 23.8566C48.5789 22.7508 48.5719 21.645 48.5513 20.5392C48.4147 19.9476 48.0641 19.7769 47.4994 20.0273C47.3628 20.1411 47.2737 20.2844 47.2313 20.4573C47.2106 21.5904 47.2036 22.7234 47.2106 23.8566C46.4817 23.8566 45.7533 23.8566 45.0244 23.8566C45.0244 21.9454 45.0244 20.0341 45.0244 18.1229C45.7533 18.1229 46.4817 18.1229 47.2106 18.1229C47.2036 18.2873 47.2106 18.4511 47.2313 18.6143C47.5258 18.2739 47.89 18.0554 48.3244 17.959Z" fill="#717680"/>
<path opacity="0.954" fill-rule="evenodd" clip-rule="evenodd" d="M54.9244 23.9795C54.5119 23.9795 54.0994 23.9795 53.6869 23.9795C51.8595 23.4944 51.0551 22.3067 51.2738 20.4164C51.6665 18.8248 52.6907 18.0057 54.3469 17.959C54.8217 17.9551 55.2754 18.0506 55.7081 18.2457C55.763 18.901 55.763 19.5563 55.7081 20.2116C55.0848 19.8083 54.4525 19.7878 53.8106 20.1502C53.4076 20.5666 53.3321 21.0376 53.5837 21.5631C53.9723 22.024 54.4607 22.181 55.0481 22.0341C55.2845 21.9646 55.5043 21.8622 55.7081 21.727C55.763 22.3822 55.763 23.0375 55.7081 23.6928C55.4511 23.8141 55.19 23.9096 54.9244 23.9795Z" fill="#717680"/>
<path opacity="0.959" fill-rule="evenodd" clip-rule="evenodd" d="M59.8331 23.9795C59.3794 23.9795 58.9256 23.9795 58.4719 23.9795C56.9023 23.6147 56.0913 22.625 56.0381 21.0102C56.1243 19.3362 56.9906 18.326 58.6369 17.9795C59.756 17.8355 60.6977 18.17 61.4625 18.9829C62.0025 19.7433 62.2153 20.5898 62.1019 21.5222C60.7955 21.5222 59.4895 21.5222 58.1831 21.5222C58.2178 21.9113 58.424 22.1639 58.8019 22.2798C59.3286 22.415 59.7618 22.2716 60.1012 21.8498C60.6924 22.0819 61.2839 22.314 61.875 22.5461C61.9026 22.587 61.9026 22.628 61.875 22.6689C61.3862 23.3997 60.7056 23.8365 59.8331 23.9795ZM58.8431 19.5973C59.2655 19.5294 59.6161 19.6523 59.895 19.9659C59.9655 20.0645 59.9998 20.1737 59.9981 20.2935C59.393 20.2935 58.7883 20.2935 58.1831 20.2935C58.2623 19.9281 58.4826 19.696 58.8431 19.5973Z" fill="#717680"/>
<path opacity="0.967" fill-rule="evenodd" clip-rule="evenodd" d="M28.6069 18.1229C29.3219 18.1229 30.0369 18.1229 30.7519 18.1229C30.7519 20.0341 30.7519 21.9454 30.7519 23.8567C30.0369 23.8567 29.3219 23.8567 28.6069 23.8567C28.6069 21.9454 28.6069 20.0341 28.6069 18.1229Z" fill="#717680"/>
</g>
<defs>
<clipPath id="clip0_129_498">
<rect width="66" height="24" fill="white"/>
</clipPath>
</defs>
</svg>
