<svg width="76" height="24" viewBox="0 0 76 24" fill="none" xmlns="http://www.w3.org/2000/svg">
<path d="M16.5903 0.487096C17.1264 0.487096 17.6652 0.487096 18.2035 0.483394C18.1976 2.40116 18.2229 4.31929 18.1916 6.23706C18.1779 7.47485 17.6533 8.79408 16.5137 9.40816C15.2257 10.0611 13.5928 10.0574 12.3301 9.34782C11.2552 8.72153 10.7328 7.43376 10.7618 6.23299C10.7678 4.31707 10.7637 2.40116 10.7659 0.485245H12.3316C12.3357 2.1439 12.3279 3.80071 12.3334 5.45936C12.361 6.22151 12.3628 7.05102 12.8231 7.70064C13.4418 8.54866 14.7398 8.62862 15.6117 8.15112C16.4006 7.67732 16.5691 6.68938 16.5847 5.84543C16.5981 4.05981 16.5862 2.27271 16.5903 0.487096ZM23.5795 0.52226C24.9358 0.121014 26.4495 0.364575 27.6575 1.08378C27.65 1.64493 27.65 2.20424 27.65 2.76391C26.6361 2.01139 25.2872 1.45801 24.0283 1.89627C23.4839 2.0584 23.1277 2.71061 23.3899 3.23548C23.6051 3.73815 24.1907 3.88436 24.654 4.07166C25.6523 4.46735 26.8034 4.67982 27.5437 5.5197C28.4951 6.66384 28.2542 8.7008 26.8603 9.39668C25.292 10.2055 23.3322 9.94821 21.8286 9.10611C21.8268 8.52905 21.8268 7.9542 21.8208 7.37713C22.9526 8.24477 24.5228 8.75928 25.9088 8.23107C26.6647 7.95827 26.7607 6.78747 26.0754 6.38327C25.0121 5.74216 23.7063 5.6115 22.6864 4.88452C21.79 4.24267 21.5256 2.97045 21.8978 1.96845C22.1755 1.24147 22.8474 0.736579 23.5795 0.52226ZM38.135 0.346807C40.2688 2.29603 42.3442 4.31152 44.439 6.30331V0.485245H46.005V9.89565C43.869 7.87609 41.7921 5.79657 39.6441 3.78812V9.69022C39.1374 9.69392 38.6321 9.69392 38.1272 9.69577C38.1298 6.58019 38.1141 3.46535 38.135 0.346807ZM50.119 0.483394C52.0086 0.483394 53.8959 0.493018 55.7831 0.477472C55.7947 0.951268 55.7947 1.42469 55.7947 1.89849C54.4402 1.89849 53.0872 1.89627 51.7323 1.89849V4.08721C52.9403 4.09128 54.1465 4.08721 55.3545 4.09128V5.5023C54.1463 5.50403 52.9389 5.50403 51.7323 5.5023C51.7323 6.42769 51.7323 7.35603 51.7364 8.28178C53.0872 8.27586 54.4402 8.28178 55.7891 8.27771C55.791 8.7652 55.7928 9.25418 55.7928 9.74167H50.1153C50.119 6.65607 50.1135 3.57084 50.119 0.483394ZM60.3839 0.845774C61.8521 -2.61962e-05 63.7279 0.259081 65.1687 1.03899C65.1962 1.61199 65.1962 2.18647 65.1943 2.75984C64.1488 1.98029 62.7404 1.42284 61.4569 1.93365C60.7285 2.19276 60.6441 3.28619 61.306 3.66412C62.3842 4.28006 63.7023 4.40443 64.7106 5.16102C66.0655 6.16673 65.9654 8.60122 64.4169 9.38077C62.8486 10.1995 60.8695 9.95784 59.3696 9.09242C59.3696 8.52312 59.3696 7.9542 59.3599 7.3849C60.4523 8.16222 61.8425 8.6908 63.1895 8.32842C63.6866 8.20368 64.1428 7.75913 64.0722 7.21352C64.0822 6.79636 63.7885 6.42991 63.4204 6.25853C62.363 5.71255 61.1152 5.55857 60.1567 4.82011C58.9056 3.85512 58.9881 1.64308 60.3839 0.845774ZM69.7813 0.877237C71.2377 -2.61962e-05 73.1447 0.235761 74.5836 1.03677C74.5895 1.60422 74.5895 2.16944 74.5936 2.73652C73.5577 1.95697 72.1441 1.42877 70.8778 1.94328C70.1713 2.21608 70.0906 3.27842 70.7365 3.66412C71.8407 4.30375 73.2153 4.40443 74.2255 5.22173C75.0948 5.90392 75.2688 7.16873 74.9319 8.16667C74.6166 9.05503 73.718 9.57325 72.8349 9.76277C71.4801 10.0415 70.0334 9.79201 68.8295 9.11796C68.8098 8.53904 68.8098 7.96012 68.8079 7.3812C69.9471 8.2233 71.4998 8.76298 72.884 8.23255C73.6377 7.95975 73.7533 6.80968 73.074 6.39252C71.9813 5.71218 70.603 5.6152 69.579 4.80789C68.3718 3.84365 68.4283 1.68861 69.7813 0.877237ZM0.731216 0.485245C2.37274 0.580744 4.07748 0.245015 5.66583 0.760269C7.42969 1.32327 7.68028 4.06981 6.0711 4.96225C7.53751 5.56671 7.87399 7.63661 6.86789 8.7826C6.2492 9.5155 5.239 9.7102 4.32473 9.7376C3.1264 9.75721 1.93029 9.7376 0.73196 9.74352V0.485245M2.30024 1.90034C2.29826 2.71122 2.29826 3.52198 2.30024 4.33262C3.14201 4.2919 4.01539 4.44959 4.83745 4.2138C5.83017 3.9273 5.83798 2.29974 4.85121 2.00361C4.0191 1.793 3.14796 1.93736 2.30024 1.90034ZM2.30024 5.69922C2.29652 6.57612 2.29838 7.45338 2.30024 8.32731C3.26694 8.2592 4.30502 8.51646 5.2193 8.11299C6.12576 7.67251 6.04359 6.17154 5.094 5.83433C4.19348 5.55486 3.22827 5.7603 2.30024 5.69922ZM32.1058 0.485245H33.6733V9.74352H32.1058V0.485245ZM25.688 14.8598C27.1503 13.9377 29.1004 14.1935 30.5453 15.0256C30.5375 15.5831 30.5375 16.1405 30.5393 16.6976C29.4823 15.928 28.0296 15.3336 26.7569 15.924C26.1286 16.2223 26.0464 17.1518 26.6119 17.5552C27.7712 18.2881 29.312 18.3233 30.3122 19.3253C30.9814 19.9546 31.093 20.9584 30.9212 21.8161C30.7215 22.6737 29.9697 23.313 29.1413 23.5558C27.6913 24 26.0639 23.7605 24.76 23.0061C24.7641 22.435 24.7659 21.8642 24.76 21.293C25.8624 22.1174 27.36 22.6593 28.7149 22.1759C29.5329 21.9575 29.6957 20.7063 28.9554 20.297C27.8612 19.6166 26.4692 19.5311 25.4627 18.689C24.3216 17.7288 24.396 15.6626 25.688 14.8598ZM6.9482 14.47H8.51239C8.51611 17.5223 8.51672 20.5758 8.51425 23.6306H6.9482V14.47ZM12.9663 14.2557C15.0495 16.2356 17.1279 18.2237 19.2293 20.1848C19.2372 18.263 19.2312 16.343 19.2331 14.4234C19.7536 14.4211 20.2757 14.4204 20.7995 14.4211C20.8032 17.5456 20.7954 20.6679 20.8032 23.7923C18.6791 21.7879 16.5962 19.7384 14.4881 17.7162C14.478 19.6869 14.4881 21.6591 14.484 23.6317H12.9666C12.9646 20.5054 12.9645 17.38 12.9663 14.2557ZM34.9932 14.47H36.5596V23.6306H34.9932V14.47ZM41.0644 14.47C42.3254 14.47 43.5875 14.4686 44.8509 14.4659C46.2857 14.4485 47.7677 15.1796 48.469 16.4562C49.2226 17.7969 49.2713 19.4634 48.8036 20.9077C48.3024 22.4253 46.8103 23.4988 45.2209 23.6013C43.8366 23.6716 42.4505 23.6113 41.0644 23.6306V14.47ZM42.6777 15.8829V22.2155C43.7994 22.1747 45.0074 22.3872 46.0507 21.8649C47.0546 21.35 47.5134 20.1807 47.484 19.1047C47.5249 18.0172 47.1394 16.7972 46.1333 16.2397C45.0777 15.653 43.827 15.9573 42.6777 15.8829ZM52.3198 14.47C54.1952 14.4683 56.0714 14.4683 57.9486 14.47C57.9486 14.9416 57.9463 15.4132 57.9463 15.8851C56.5919 15.8812 55.2384 15.8812 53.8858 15.8851V18.025C55.092 18.0272 56.2993 18.0279 57.508 18.0272V19.3916C56.3 19.3916 55.0912 19.3893 53.8858 19.3916V22.2136C55.2388 22.2177 56.5937 22.2136 57.9486 22.2158V23.6287H52.3198V14.47ZM62.5511 14.4682C63.8216 14.4796 65.0924 14.4563 66.361 14.4759C67.4393 14.5029 68.5792 15.1211 68.8893 16.2045C69.1674 17.1462 69.1009 18.263 68.4937 19.0677C68.1219 19.5489 67.5189 19.7306 66.9552 19.8846C68.0552 21.1219 69.147 22.3681 70.2304 23.6232C69.6108 23.635 68.9934 23.635 68.3785 23.6232C67.3289 22.3817 66.2592 21.1576 65.2047 19.9238C64.8563 19.9261 64.5098 19.9261 64.1637 19.9261C64.16 21.1598 64.1618 22.3935 64.1618 23.6276C63.6234 23.6293 63.0851 23.6293 62.5467 23.6276V14.4652M64.1618 15.8348C64.1581 16.7431 64.16 17.6515 64.1618 18.5595C64.998 18.5128 65.8721 18.6901 66.6815 18.431C67.6821 18.0312 67.7036 16.4322 66.7187 16.0061C65.9089 15.6978 65.014 15.8792 64.1663 15.8362" fill="#717680"/>
</svg>
