<?xml version="1.0" encoding="UTF-8"?>
<svg version="1.1" xmlns="http://www.w3.org/2000/svg" width="25" height="24">
<path d="M0 0 C3.15689734 1.60714774 5.19415756 2.97438234 7.375 5.75 C8.83243811 10.99677719 8.72165056 14.65623688 6.1875 19.375 C3.89683896 22.12379325 2.32621291 23.82691798 -1.3046875 24.30078125 C-10.32390746 24.34190231 -10.32390746 24.34190231 -14 21 C-16.61525329 16.94184834 -17.70124748 13.80855413 -17 9 C-12.7772647 1.30858927 -8.6998246 -1.37206939 0 0 Z " fill="#F2F5F9" transform="translate(17,0)"/>
<path d="M0 0 C3.5 1.75 3.5 1.75 6 4 C6.33 5.32 6.66 6.64 7 8 C-0.59 8 -8.18 8 -16 8 C-11.60250308 0.67083847 -8.47247515 -1.3339018 0 0 Z " fill="#F30F4B" transform="translate(17,0)"/>
<path d="M0 0 C7.59 0 15.18 0 23 0 C20 5 20 5 17 7 C12.42901563 7.5965522 8.26925778 7.52885741 4 5.75 C2 4 2 4 0 0 Z " fill="#13429D" transform="translate(1,17)"/>
</svg>
