<svg width="25" height="24" viewBox="0 0 25 24" fill="none" xmlns="http://www.w3.org/2000/svg">
<g clip-path="url(#clip0_129_1043)">
<path d="M12.7 24.0601C19.3274 24.0601 24.7 18.6875 24.7 12.0601C24.7 5.43264 19.3274 0.0600586 12.7 0.0600586C6.07258 0.0600586 0.699997 5.43264 0.699997 12.0601C0.699997 18.6875 6.07258 24.0601 12.7 24.0601Z" fill="#F0F0F0"/>
<path d="M12.1783 12.0603H24.7C24.7 10.9772 24.5556 9.92791 24.2866 8.9298H12.1783V12.0603ZM12.1783 5.7994H22.9387C22.2049 4.60276 21.2679 3.54338 20.1698 2.66895H12.1783V5.7994ZM12.7 24.0603C15.5242 24.0603 18.12 23.0841 20.1698 21.4516H5.23018C7.28003 23.0841 9.87583 24.0603 12.7 24.0603ZM2.46128 18.3211H22.9387C23.5355 17.3475 23.9895 16.2933 24.2866 15.1907H1.11339C1.41052 16.2933 1.86445 17.3475 2.46128 18.3211Z" fill="#D80027"/>
<path d="M6.25862 1.93403H7.35217L6.33498 2.67301L6.72353 3.86875L5.70639 3.12976L4.68925 3.86875L5.02487 2.83576C4.12762 3.58322 3.34363 4.45697 2.69743 5.42968H3.04783L2.40034 5.90007C2.29937 6.06857 2.20256 6.23953 2.11 6.41279L2.41918 7.3644L1.84234 6.94529C1.69838 7.2501 1.56745 7.5609 1.4499 7.87684L1.79054 8.92534H3.04783L2.03064 9.66432L2.41918 10.8601L1.40204 10.1211L0.792763 10.5638C0.730983 11.0601 0.700001 11.5599 0.699997 12.0601H12.7V0.0600586C10.3294 0.0600586 8.11961 0.747715 6.25862 1.93403ZM6.72353 10.8601L5.70639 10.1211L4.68925 10.8601L5.07779 9.66432L4.06061 8.92534H5.31789L5.70639 7.72961L6.09489 8.92534H7.35217L6.33498 9.66432L6.72353 10.8601ZM6.33498 6.16867L6.72353 7.3644L5.70639 6.62542L4.68925 7.3644L5.07779 6.16867L4.06061 5.42968H5.31789L5.70639 4.23395L6.09489 5.42968H7.35217L6.33498 6.16867ZM11.0279 10.8601L10.0107 10.1211L8.99359 10.8601L9.38214 9.66432L8.36495 8.92534H9.62223L10.0107 7.72961L10.3992 8.92534H11.6565L10.6393 9.66432L11.0279 10.8601ZM10.6393 6.16867L11.0279 7.3644L10.0107 6.62542L8.99359 7.3644L9.38214 6.16867L8.36495 5.42968H9.62223L10.0107 4.23395L10.3992 5.42968H11.6565L10.6393 6.16867ZM10.6393 2.67301L11.0279 3.86875L10.0107 3.12976L8.99359 3.86875L9.38214 2.67301L8.36495 1.93403H9.62223L10.0107 0.738293L10.3992 1.93403H11.6565L10.6393 2.67301Z" fill="#0052B4"/>
</g>
<defs>
<clipPath id="clip0_129_1043">
<rect width="24" height="24" fill="white" transform="translate(0.699997)"/>
</clipPath>
</defs>
</svg>
