<svg width="153" height="32" viewBox="0 0 153 32" fill="none" xmlns="http://www.w3.org/2000/svg">
<path d="M67.4951 15.6373C67.1659 16.8579 66.8366 18.0125 66.4745 19.1672C66.1123 20.3218 65.7501 21.3775 65.4209 22.3672H63.3796C63.1162 21.7404 62.8528 21.0146 62.5235 20.2228C62.1943 19.4311 61.9309 18.5404 61.6346 17.6496C61.3383 16.7589 61.0419 15.7692 60.7127 14.7465C60.3834 13.7239 60.1201 12.7012 59.8237 11.6455H62.4577C62.5894 12.2393 62.7211 12.8331 62.8857 13.4929L63.4125 15.5383C63.61 16.2311 63.7747 16.8909 63.9722 17.5507C64.1698 18.2105 64.3673 18.8043 64.5649 19.3651C64.7624 18.7383 64.9599 18.0785 65.1575 17.4187C65.355 16.7589 65.5526 16.0661 65.7172 15.4063C65.8818 14.7465 66.0794 14.0867 66.2111 13.4599C66.3428 12.8331 66.5074 12.2393 66.6391 11.6785H68.5487C68.6804 12.2063 68.8121 12.8331 68.9438 13.4599C69.0755 14.0867 69.2401 14.7465 69.4377 15.4063C69.6352 16.0661 69.7998 16.7589 69.9645 17.4187C70.1291 18.0785 70.3596 18.7383 70.5571 19.3651C70.7217 18.8373 70.9193 18.2105 71.0839 17.5507C71.2485 16.8909 71.479 16.2311 71.6436 15.5383C71.8082 14.8455 72.0058 14.1527 72.1704 13.4929C72.335 12.8331 72.4667 12.2063 72.5984 11.6455H75.1665C74.8702 12.7012 74.5739 13.7239 74.2776 14.7465C73.9813 15.7692 73.6849 16.7259 73.3886 17.6496C73.0923 18.5733 72.796 19.4311 72.4996 20.2228C72.2033 21.0146 71.907 21.7404 71.6107 22.3672H69.6023C69.2401 21.3445 68.878 20.2888 68.5158 19.1672C68.1536 18.0455 67.7915 16.8579 67.4951 15.6373Z" fill="white"/>
<path d="M76.4835 17.0556C76.4835 16.1978 76.6152 15.3731 76.9115 14.5813C77.1749 13.9215 77.5371 13.3277 78.031 12.7999C78.4919 12.338 79.0187 11.9751 79.6443 11.7442C80.2369 11.5133 80.8625 11.3813 81.488 11.3813C82.7721 11.3154 84.0561 11.8102 84.9451 12.7669C85.7682 13.6906 86.1962 15.0432 86.1962 16.8576V17.3195C86.1962 17.4844 86.1962 17.6494 86.1962 17.7813H79.1175C79.1175 18.5401 79.4796 19.2659 80.0394 19.7937C80.6979 20.3215 81.5539 20.5525 82.377 20.5195C82.9367 20.5195 83.4964 20.4865 84.0232 20.3545C84.4183 20.2885 84.8134 20.1566 85.2085 19.9916L85.5377 22.037C85.3731 22.136 85.1756 22.2019 84.978 22.2349C84.7146 22.3339 84.4183 22.3999 84.1549 22.4329C83.8586 22.4989 83.5294 22.5318 83.1672 22.5978C82.805 22.6308 82.4428 22.6638 82.1136 22.6638C81.2905 22.6638 80.4345 22.5318 79.6443 22.2349C78.9858 21.971 78.3931 21.5751 77.9322 21.0803C77.4713 20.5855 77.142 19.9586 76.9115 19.3318C76.6811 18.6061 76.5823 17.8473 76.5823 17.0885M83.694 15.9339C83.694 15.604 83.6611 15.2741 83.5623 14.9772C83.4635 14.6803 83.3318 14.4164 83.1343 14.1855C82.9367 13.9545 82.7062 13.7896 82.4428 13.6576C81.8173 13.3937 81.0929 13.3937 80.5003 13.6576C80.2369 13.7896 79.9735 13.9875 79.776 14.2184C79.5784 14.4494 79.4138 14.7133 79.315 15.0102C79.2162 15.3071 79.1175 15.604 79.0846 15.9339H83.694Z" fill="white"/>
<path d="M97.9503 17.0225C97.9503 17.8143 97.8186 18.606 97.5552 19.3648C97.3247 20.0246 96.9296 20.6184 96.4357 21.1132C95.9419 21.6081 95.3822 22.004 94.7237 22.2349C93.9993 22.4988 93.2091 22.6308 92.4519 22.6308C91.0361 22.6308 89.6204 22.4328 88.2375 22.037V6.8617L90.7069 6.46582V12.0411C91.0361 11.8761 91.3983 11.7442 91.7605 11.6452C92.8799 11.3483 94.0981 11.4143 95.1517 11.8431C95.7443 12.1071 96.2382 12.5029 96.6333 12.9978C97.0613 13.5256 97.3576 14.1194 97.5552 14.7792C97.7856 15.538 97.8844 16.2967 97.8844 17.0555M95.3822 16.9895C95.4151 16.0988 95.2175 15.2411 94.7566 14.4823C94.2956 13.8555 93.5713 13.4926 92.7811 13.5586C92.386 13.5586 91.9909 13.6246 91.6288 13.7565C91.3324 13.8555 91.0361 13.9875 90.7398 14.1524V20.3545C90.9374 20.3875 91.1349 20.4205 91.4312 20.4534C91.7605 20.4864 92.1226 20.5194 92.4519 20.4864C93.275 20.5194 94.0652 20.1895 94.592 19.5627C95.1517 18.837 95.448 17.9132 95.3822 16.9895Z" fill="white"/>
<path d="M106.708 15.6373C106.379 16.8579 106.05 18.0125 105.688 19.1672C105.325 20.3218 104.963 21.3775 104.634 22.3672H102.593C102.329 21.7404 102.066 21.0146 101.737 20.2228C101.407 19.4311 101.144 18.5404 100.848 17.6496C100.551 16.7589 100.222 15.8022 99.9258 14.7465C99.6624 13.7239 99.3331 12.7012 99.0368 11.6455H101.671C101.802 12.2393 101.934 12.8331 102.099 13.4929L102.626 15.5383C102.823 16.2311 102.988 16.8909 103.152 17.5507C103.317 18.2105 103.547 18.8043 103.745 19.3651C103.943 18.7383 104.14 18.0785 104.338 17.4187C104.535 16.7589 104.733 16.0661 104.897 15.4063C105.062 14.7465 105.227 14.0867 105.391 13.4599C105.556 12.8331 105.688 12.2393 105.819 11.6785H107.729C107.861 12.2063 107.992 12.8331 108.124 13.4599C108.256 14.0867 108.42 14.7465 108.618 15.4063C108.815 16.0661 108.98 16.7589 109.145 17.4187C109.309 18.0785 109.54 18.7383 109.737 19.3651C109.902 18.8373 110.099 18.2105 110.264 17.5507C110.429 16.8909 110.659 16.2311 110.824 15.5383C110.988 14.8455 111.186 14.1527 111.351 13.4929C111.515 12.8331 111.647 12.2063 111.779 11.6455H114.347C114.05 12.7012 113.754 13.7239 113.458 14.7465C113.161 15.7692 112.865 16.7259 112.569 17.6496C112.272 18.5733 111.976 19.4311 111.68 20.2228C111.383 21.0146 111.087 21.7404 110.791 22.3672H108.782C108.42 21.3445 108.058 20.2888 107.696 19.1672C107.334 18.0455 106.972 16.8579 106.675 15.6373" fill="white"/>
<path d="M119.055 8.51118C119.055 8.94004 118.923 9.33592 118.594 9.63283C118.001 10.1937 117.079 10.1937 116.454 9.63283C116.158 9.33592 115.993 8.94004 115.993 8.51118C115.993 8.08231 116.125 7.68644 116.454 7.38953C117.079 6.86169 117.968 6.86169 118.594 7.38953C118.89 7.68644 119.055 8.08231 119.055 8.51118ZM118.791 22.3998H116.322V11.6452H118.791V22.3998Z" fill="white"/>
<path d="M121.952 11.9752C123.368 11.5793 124.85 11.3813 126.331 11.3813C127.088 11.3813 127.813 11.4803 128.537 11.7442C129.097 11.9422 129.558 12.3051 129.953 12.7669C130.315 13.2288 130.578 13.7566 130.677 14.3174C130.842 14.9772 130.908 15.637 130.875 16.3298V22.3669H128.405V16.7257C128.405 16.2308 128.405 15.736 128.307 15.2411C128.241 14.8783 128.142 14.5484 127.944 14.2515C127.78 14.0205 127.516 13.8226 127.253 13.7236C126.924 13.5917 126.562 13.5257 126.199 13.5587C125.87 13.5587 125.541 13.5587 125.212 13.6246C124.882 13.6576 124.619 13.6906 124.454 13.7236V22.3669H121.985V11.9752H121.952Z" fill="white"/>
<path d="M142.793 21.2785C142.793 22.9939 142.365 24.2475 141.476 25.0063C140.62 25.7981 139.271 26.1939 137.493 26.1939C136.867 26.1939 136.209 26.128 135.583 26.029C135.023 25.93 134.431 25.7981 133.904 25.6001L134.365 23.4558C134.826 23.6537 135.32 23.7857 135.813 23.8847C136.406 23.9836 136.966 24.0496 137.558 24.0496C138.316 24.1156 139.073 23.9176 139.699 23.4228C140.159 22.928 140.39 22.2682 140.324 21.6084V21.2455C139.995 21.4104 139.699 21.5094 139.336 21.6084C138.875 21.7403 138.414 21.8063 137.954 21.8063C137.328 21.8063 136.669 21.7073 136.077 21.4764C135.517 21.2785 135.023 20.9486 134.628 20.5197C134.2 20.0579 133.871 19.497 133.673 18.9032C133.443 18.1774 133.311 17.4517 133.344 16.6929C133.344 15.9671 133.443 15.2414 133.706 14.5486C133.937 13.9218 134.299 13.328 134.76 12.8661C135.221 12.4042 135.813 12.0414 136.439 11.8104C137.163 11.5465 137.921 11.4146 138.678 11.4146C139.435 11.4146 140.225 11.4805 140.983 11.6125C141.707 11.7444 142.332 11.8764 142.826 12.0084V21.2785H142.793ZM135.879 16.7259C135.813 17.5506 136.044 18.3754 136.571 19.0352C137.032 19.53 137.69 19.7939 138.349 19.7609C138.711 19.7609 139.106 19.695 139.468 19.596C139.764 19.497 140.061 19.3651 140.324 19.2001V13.6249C140.094 13.5919 139.896 13.5259 139.666 13.5259C139.336 13.4929 139.007 13.4599 138.678 13.4599C137.888 13.4269 137.13 13.7568 136.604 14.3506C136.11 15.0434 135.846 15.8682 135.879 16.6929" fill="white"/>
<path d="M148.621 20.5858C149.115 20.5858 149.609 20.5528 150.07 20.3548C150.366 20.1899 150.531 19.893 150.531 19.5631C150.531 19.2002 150.333 18.8703 150.037 18.6724C149.543 18.3425 148.983 18.1115 148.423 17.9136C147.995 17.7487 147.567 17.5837 147.172 17.3858C146.81 17.2208 146.481 16.9899 146.218 16.726C145.954 16.495 145.724 16.1652 145.559 15.8353C145.394 15.4394 145.296 14.9775 145.329 14.5487C145.296 13.6579 145.691 12.7672 146.382 12.2064C147.238 11.6126 148.292 11.2827 149.345 11.3487C149.938 11.3487 150.564 11.4146 151.156 11.5136C151.584 11.5796 152.012 11.7115 152.44 11.8435L151.979 13.8559C151.65 13.7239 151.288 13.592 150.926 13.526C150.432 13.427 149.938 13.361 149.444 13.361C149.016 13.361 148.588 13.427 148.226 13.6249C147.93 13.7569 147.732 14.0868 147.765 14.4167C147.765 14.5816 147.765 14.7466 147.864 14.8786C147.93 15.0435 148.028 15.1755 148.193 15.2744C148.391 15.4064 148.588 15.5383 148.786 15.6373C149.082 15.7693 149.378 15.9012 149.675 16.0002C150.201 16.1981 150.695 16.3961 151.156 16.66C151.518 16.8579 151.881 17.0889 152.177 17.3858C152.44 17.6497 152.638 17.9466 152.77 18.3095C152.934 18.7054 153 19.1342 153.033 19.5631C153.066 20.4868 152.638 21.3775 151.881 21.9054C150.893 22.4992 149.773 22.7631 148.621 22.6971C147.864 22.6971 147.107 22.6311 146.349 22.4662C145.954 22.3672 145.526 22.2353 145.131 22.0703L145.559 19.992C145.987 20.1569 146.448 20.3219 146.876 20.4208C147.436 20.5528 148.028 20.6188 148.621 20.6188" fill="white"/>
<path d="M56.9593 0C56.8606 1.74845 56.3667 5.31134 54.062 6.43299L53.6998 6.59794L35.0975 16.2309L30.2905 13.8227L56.9593 0Z" fill="white"/>
<path d="M52.6133 8.67627C52.5145 10.3917 52.0536 13.9876 49.7489 15.1422L41.419 19.3979L36.612 16.9897L52.6462 8.67627H52.6133Z" fill="white"/>
<path d="M47.3125 20.7506C46.8845 20.9485 46.4235 21.0475 45.9626 21.0145C45.3041 21.0145 44.6785 20.8825 44.0859 20.6846L42.8677 20.0908L47.938 17.5176C48.0039 18.6062 47.8063 19.7279 47.3125 20.7506Z" fill="white"/>
<path d="M35.4267 29.6576C34.2744 30.8122 32.8257 31.604 31.2453 31.9339H31.1466C30.8502 31.9669 30.5539 31.9999 30.2247 31.9999C29.9613 31.9999 29.6979 31.9999 29.4345 31.9669C29.1711 31.9669 28.9406 31.9009 28.6772 31.8349C28.1175 31.703 27.5907 31.505 27.0639 31.2411C26.8335 31.1421 26.603 31.0432 26.3725 30.9112L13.3673 24.3793H13.4332L11.4906 23.4226C9.31763 22.3669 8.75792 19.1009 8.62622 17.2865V17.1875L27.5578 26.7215L30.949 28.437C31.1466 28.536 31.3441 28.6349 31.5746 28.7339L31.7063 28.7999C32.3318 29.1298 33.0233 29.3607 33.7147 29.5256C33.8464 29.5256 33.9781 29.5916 34.1098 29.5916C34.2085 29.5916 34.3073 29.5916 34.4061 29.6576C34.7024 29.7236 34.9658 29.7236 35.2292 29.7236H35.3609L35.4267 29.6576Z" fill="white"/>
<path d="M40.2337 25.9959C40.3654 25.9959 40.53 25.9959 40.6617 25.9959C39.9703 26.6557 39.1801 27.2165 38.2912 27.6453C37.9619 27.8103 37.6327 27.9423 37.3034 28.0412C37.04 28.1072 36.7437 28.2062 36.4803 28.2392C36.3486 28.2392 36.2169 28.2721 36.0852 28.3051C35.7889 28.3051 35.4926 28.3051 35.1963 28.3051C34.2415 28.2392 33.2867 27.9752 32.4306 27.5464H32.3648C32.1014 27.4474 31.9038 27.3484 31.7063 27.2495L28.9077 25.8639H28.8419L7.70435 15.1752L6.91416 14.7794C5.00454 13.4598 4.5436 10.2598 4.44482 8.67627L25.3189 19.2L28.3151 20.7175L28.8748 20.9484L36.4803 24.7752C36.7108 24.9072 36.9413 25.0062 37.2376 25.1051C37.929 25.468 38.6863 25.7319 39.4765 25.8639C39.7069 25.8969 39.9374 25.9299 40.2337 25.9629V25.9959Z" fill="white"/>
<path d="M46.0613 22.334L45.9296 22.466C45.1724 23.1918 44.3163 23.7526 43.3615 24.1814L43.1969 24.2474C42.736 24.4454 42.275 24.5773 41.8141 24.6433H41.7153C41.3861 24.6763 41.0568 24.7093 40.7605 24.7093C39.7069 24.7093 38.6862 24.4124 37.7314 23.9175C37.501 23.8186 37.2705 23.7196 37.04 23.5876L26.4383 18.2763L3.29245 6.66392L2.89735 6.46598C0.559716 5.27835 0.0987734 1.51753 0 0L40.2995 20.2887L41.3531 20.8165H41.3861C41.3861 20.8495 43.592 21.9381 43.592 21.9381H43.6908C43.7566 21.9711 43.7895 22.0041 43.8554 22.0041C44.3493 22.1691 44.876 22.268 45.4028 22.301C45.6004 22.301 45.8309 22.334 46.0284 22.334H46.0943H46.0613Z" fill="white"/>
</svg>
