<svg width="67" height="24" viewBox="0 0 67 24" fill="none" xmlns="http://www.w3.org/2000/svg">
<g clip-path="url(#clip0_129_955)">
<path opacity="0.977" fill-rule="evenodd" clip-rule="evenodd" d="M24.5449 -0.0205078C25.7548 -0.0205078 26.9649 -0.0205078 28.1749 -0.0205078C28.168 1.72699 28.1749 3.47443 28.1955 5.22181C29.0776 4.34286 30.1432 3.99474 31.3924 4.17744C32.8736 4.474 33.788 5.35455 34.1355 6.81908C34.2034 7.08816 34.2447 7.36117 34.2592 7.6382C34.2799 9.91803 34.2867 12.1979 34.2799 14.4778C33.0699 14.4778 31.8598 14.4778 30.6499 14.4778C30.6693 12.4696 30.6487 10.4628 30.588 8.45731C30.3779 7.6531 29.8623 7.34594 29.0411 7.53581C28.7813 7.6162 28.5819 7.77323 28.443 8.0068C28.3429 8.17226 28.2741 8.34976 28.2367 8.53922C28.1763 10.5175 28.1556 12.4971 28.1749 14.4778C26.9649 14.4778 25.7548 14.4778 24.5449 14.4778C24.5449 9.64502 24.5449 4.81226 24.5449 -0.0205078Z" fill="#39007E"/>
<path opacity="0.973" fill-rule="evenodd" clip-rule="evenodd" d="M62.6186 -0.0205078C64.0488 -0.0205078 65.4785 -0.0205078 66.9086 -0.0205078C66.9086 0.0340997 66.9086 0.0887073 66.9086 0.143315C65.6612 3.1 64.4167 6.06247 63.1755 9.03069C63.1549 9.05116 63.1342 9.07164 63.1136 9.09212C61.6975 9.1126 60.281 9.11944 58.8649 9.1126C60.1044 6.06402 61.3555 3.01964 62.6186 -0.0205078Z" fill="#39007E"/>
<path opacity="0.976" fill-rule="evenodd" clip-rule="evenodd" d="M16.5836 4.15698C17.5556 4.04554 18.4631 4.22984 19.3061 4.70989C19.5298 4.84991 19.7292 5.02053 19.9043 5.22183C19.9249 4.93547 19.9317 4.64878 19.9249 4.36176C21.0936 4.36176 22.2624 4.36176 23.4311 4.36176C23.4311 7.73376 23.4311 11.1058 23.4311 14.4778C22.2624 14.4778 21.0936 14.4778 19.9249 14.4778C19.9317 14.1908 19.9249 13.9041 19.9043 13.6177C19.3106 14.2571 18.575 14.6189 17.6974 14.7031C15.702 14.8082 14.1827 14.0232 13.1393 12.3481C12.1559 10.4758 12.1284 8.59187 13.0568 6.69623C13.8462 5.31816 15.0219 4.47177 16.5836 4.15698ZM17.4911 7.43343C18.9728 7.31499 19.8115 7.98392 20.0074 9.44026C19.935 10.4329 19.4263 11.0814 18.4811 11.3857C17.184 11.5987 16.3384 11.0868 15.9443 9.84982C15.8159 8.62909 16.3315 7.82362 17.4911 7.43343Z" fill="#39007E"/>
<path opacity="0.977" fill-rule="evenodd" clip-rule="evenodd" d="M39.6424 4.15698C41.5642 3.97137 43.1936 4.55838 44.5305 5.91807C45.8757 7.63386 46.1644 9.51782 45.3968 11.5699C44.5066 13.4216 43.0282 14.466 40.9624 14.703C38.6117 14.8774 36.8174 13.9833 35.5793 12.0205C34.7953 10.4342 34.7404 8.8233 35.4143 7.18769C36.2876 5.44016 37.697 4.4299 39.6424 4.15698ZM40.2199 7.43343C41.5126 7.48147 42.2275 8.14355 42.3649 9.41977C42.2902 10.4988 41.7267 11.1541 40.6736 11.3856C39.7733 11.4813 39.0926 11.1469 38.6318 10.3822C38.1907 9.3282 38.4176 8.44765 39.3124 7.74059C39.5994 7.57681 39.902 7.47442 40.2199 7.43343Z" fill="#39007E"/>
<path opacity="0.977" fill-rule="evenodd" clip-rule="evenodd" d="M51.0274 4.15707C53.0016 3.95372 54.6582 4.56806 55.998 6.00007C57.2339 7.63142 57.5226 9.41983 56.8643 11.3653C56.0207 13.3453 54.5151 14.4579 52.3474 14.7031C50.6867 14.8451 49.2293 14.381 47.9749 13.3107C46.6231 11.9461 46.1075 10.3147 46.428 8.41645C47.0138 5.98516 48.5466 4.56536 51.0274 4.15707ZM51.6049 7.43352C52.797 7.45015 53.5053 8.03716 53.7293 9.19461C53.8126 10.0327 53.5032 10.6812 52.8011 11.14C51.8858 11.5881 51.0538 11.4721 50.3055 10.7919C49.6567 9.93677 49.6294 9.06306 50.223 8.17072C50.5906 7.74601 51.0513 7.50028 51.6049 7.43352Z" fill="#39007E"/>
<path opacity="0.972" fill-rule="evenodd" clip-rule="evenodd" d="M0.90863 4.36194C2.2012 4.3551 3.4937 4.36194 4.78613 4.38242C5.55482 6.29799 6.31795 8.21611 7.07551 10.1367C7.86025 8.22254 8.63715 6.30447 9.40613 4.38242C10.6909 4.34183 11.9696 4.35547 13.2424 4.42337C11.3164 8.99955 9.39825 13.5798 7.48801 18.164C6.20542 18.2048 4.91978 18.2184 3.63113 18.2049C4.12344 16.9709 4.63219 15.7422 5.15738 14.5189C3.76428 11.1876 2.34803 7.8702 0.90863 4.56672C0.90863 4.49845 0.90863 4.43021 0.90863 4.36194Z" fill="#39007E"/>
<path opacity="0.968" fill-rule="evenodd" clip-rule="evenodd" d="M59.7311 9.89061C61.073 9.84945 61.9322 10.4638 62.3093 11.7336C62.4932 13.027 61.9916 13.9485 60.8036 14.4981C59.5958 14.863 58.6265 14.5421 57.8955 13.5357C57.2941 12.2477 57.5486 11.1624 58.6586 10.2797C58.9994 10.0875 59.3566 9.95782 59.7311 9.89061Z" fill="#39007E"/>
<path opacity="0.934" fill-rule="evenodd" clip-rule="evenodd" d="M30.3612 15.2971C31.3573 15.269 31.8317 15.7468 31.7843 16.7305C31.525 17.4634 31.0094 17.7569 30.2374 17.6111C29.5127 17.3118 29.2583 16.7862 29.4743 16.0343C29.6543 15.6434 29.9499 15.3976 30.3612 15.2971Z" fill="#7F1FF7"/>
<path opacity="0.954" fill-rule="evenodd" clip-rule="evenodd" d="M27.4736 15.3378C27.9802 15.2914 28.4683 15.3597 28.938 15.5426C28.9586 16.1294 28.9655 16.7165 28.9586 17.3037C28.744 17.2419 28.524 17.201 28.2986 17.1808C27.702 17.2136 27.427 17.5276 27.4736 18.1228C27.9411 18.1228 28.4086 18.1228 28.8761 18.1228C28.8761 18.6962 28.8761 19.2695 28.8761 19.8429C28.4086 19.8429 27.9411 19.8429 27.4736 19.8429C27.4736 21.1808 27.4736 22.5187 27.4736 23.8566C26.7448 23.8566 26.0161 23.8566 25.2874 23.8566C25.2874 22.5187 25.2874 21.1808 25.2874 19.8429C25.0399 19.8429 24.7924 19.8429 24.5449 19.8429C24.5449 19.2695 24.5449 18.6962 24.5449 18.1228C24.7924 18.1228 25.0399 18.1228 25.2874 18.1228C25.2665 17.441 25.4384 16.813 25.803 16.2388C26.2483 15.7278 26.8052 15.4274 27.4736 15.3378Z" fill="#7F1FF7"/>
<path opacity="0.954" fill-rule="evenodd" clip-rule="evenodd" d="M35.7649 17.9589C37.1984 17.8604 38.0028 18.5157 38.178 19.9247C38.1987 21.2352 38.2055 22.5458 38.1987 23.8565C37.4699 23.8565 36.7412 23.8565 36.0124 23.8565C36.0193 22.7233 36.0124 21.5902 35.9918 20.4572C35.7875 19.8996 35.4231 19.7699 34.8987 20.0681C34.7844 20.2062 34.7088 20.3632 34.6718 20.5391C34.6512 21.6448 34.6443 22.7506 34.6512 23.8565C33.9224 23.8565 33.1937 23.8565 32.4649 23.8565C32.4649 21.9452 32.4649 20.034 32.4649 18.1227C33.1937 18.1227 33.9224 18.1227 34.6512 18.1227C34.6443 18.2871 34.6512 18.4509 34.6718 18.6141C34.9659 18.2739 35.3303 18.0555 35.7649 17.9589Z" fill="#7F1FF7"/>
<path opacity="0.962" fill-rule="evenodd" clip-rule="evenodd" d="M41.9524 23.9793C41.5948 23.9793 41.2374 23.9793 40.8799 23.9793C39.6225 23.6164 38.9006 22.7836 38.7142 21.481C38.5474 20.2431 38.9393 19.2261 39.8899 18.4298C40.765 17.8671 41.6725 17.8125 42.6124 18.266C42.7551 18.3669 42.8858 18.4829 43.0042 18.6141C43.0249 18.4509 43.0319 18.2871 43.0249 18.1227C43.7397 18.1227 44.455 18.1227 45.1699 18.1227C45.1699 20.0339 45.1699 21.9452 45.1699 23.8565C44.455 23.8565 43.7397 23.8565 43.0249 23.8565C43.0319 23.6921 43.0249 23.5282 43.0042 23.365C42.7043 23.6605 42.3537 23.8653 41.9524 23.9793ZM41.7049 19.8838C42.5129 19.8261 42.9807 20.1947 43.1074 20.9896C43.0187 21.6647 42.6338 22.0333 41.9524 22.0954C41.1865 22.0109 40.8084 21.5876 40.818 20.8257C40.9273 20.3334 41.2229 20.0195 41.7049 19.8838Z" fill="#7F1FF7"/>
<path opacity="0.955" fill-rule="evenodd" clip-rule="evenodd" d="M49.2536 17.9592C50.5452 17.8316 51.3359 18.3914 51.6255 19.6383C51.6828 21.0437 51.7035 22.4499 51.6874 23.8568C50.9585 23.8568 50.23 23.8568 49.5011 23.8568C49.5081 22.7509 49.5011 21.6451 49.4805 20.5394C49.344 19.9477 48.9933 19.777 48.4286 20.0274C48.2921 20.1412 48.203 20.2845 48.1605 20.4574C48.1399 21.5905 48.1329 22.7236 48.1399 23.8568C47.411 23.8568 46.6825 23.8568 45.9536 23.8568C45.9536 21.9455 45.9536 20.0343 45.9536 18.123C46.6825 18.123 47.411 18.123 48.1399 18.123C48.1329 18.2874 48.1399 18.4512 48.1605 18.6144C48.455 18.274 48.8193 18.0556 49.2536 17.9592Z" fill="#7F1FF7"/>
<path opacity="0.954" fill-rule="evenodd" clip-rule="evenodd" d="M55.8536 23.9796C55.4411 23.9796 55.0286 23.9796 54.6161 23.9796C52.7888 23.4945 51.9844 22.3068 52.203 20.4164C52.5957 18.8249 53.6199 18.0058 55.2761 17.9591C55.7509 17.9551 56.2047 18.0507 56.6374 18.2458C56.6922 18.9011 56.6922 19.5564 56.6374 20.2117C56.0141 19.8084 55.3817 19.7879 54.7399 20.1502C54.3369 20.5667 54.2614 21.0377 54.513 21.5632C54.9016 22.024 55.39 22.1811 55.9774 22.0342C56.2137 21.9647 56.4336 21.8623 56.6374 21.727C56.6922 22.3823 56.6922 23.0376 56.6374 23.6929C56.3804 23.8142 56.1193 23.9097 55.8536 23.9796Z" fill="#7F1FF7"/>
<path opacity="0.959" fill-rule="evenodd" clip-rule="evenodd" d="M60.7624 23.9798C60.3087 23.9798 59.8549 23.9798 59.4012 23.9798C57.8316 23.615 57.0206 22.6252 56.9674 21.0105C57.0536 19.3364 57.9199 18.3262 59.5662 17.9798C60.6853 17.8358 61.627 18.1703 62.3918 18.9832C62.9317 19.7436 63.1446 20.59 63.0312 21.5224C61.7248 21.5224 60.4188 21.5224 59.1124 21.5224C59.1471 21.9116 59.3533 22.1641 59.7312 22.2801C60.2579 22.4152 60.691 22.2719 61.0305 21.8501C61.6216 22.0822 62.2132 22.3142 62.8043 22.5463C62.8319 22.5873 62.8319 22.6282 62.8043 22.6692C62.3155 23.3999 61.6348 23.8368 60.7624 23.9798ZM59.7724 19.5975C60.1948 19.5297 60.5454 19.6525 60.8243 19.9661C60.8948 20.0648 60.9291 20.1739 60.9274 20.2937C60.3223 20.2937 59.7175 20.2937 59.1124 20.2937C59.1916 19.9284 59.4119 19.6963 59.7724 19.5975Z" fill="#7F1FF7"/>
<path opacity="0.967" fill-rule="evenodd" clip-rule="evenodd" d="M29.5361 18.123C30.2511 18.123 30.9661 18.123 31.6811 18.123C31.6811 20.0343 31.6811 21.9456 31.6811 23.8568C30.9661 23.8568 30.2511 23.8568 29.5361 23.8568C29.5361 21.9456 29.5361 20.0343 29.5361 18.123Z" fill="#7F1FF7"/>
</g>
<defs>
<clipPath id="clip0_129_955">
<rect width="66" height="24" fill="white" transform="translate(0.92926)"/>
</clipPath>
</defs>
</svg>
