<svg width="65" height="64" viewBox="0 0 65 64" fill="none" xmlns="http://www.w3.org/2000/svg">
<g clip-path="url(#clip0_129_585)">
<path d="M10 30C11.5128 30 12.8819 29.3931 13.8935 28.4185L19.4439 31.1934C19.416 31.4194 19.375 31.6416 19.375 31.875C19.375 34.9766 21.8985 37.5 25 37.5C28.1015 37.5 30.625 34.9765 30.625 31.875C30.625 31.0093 30.4121 30.1988 30.061 29.4654L37.5904 21.936C38.3237 22.2871 39.1343 22.5 40 22.5C43.1016 22.5 45.625 19.9765 45.625 16.875C45.625 16.291 45.5103 15.7387 45.3442 15.209L51.8862 10.3038C52.7788 10.9 53.8488 11.25 55 11.25C58.1016 11.25 60.625 8.7265 60.625 5.625C60.625 2.5235 58.1015 0 55 0C51.8985 0 49.375 2.5235 49.375 5.625C49.375 6.209 49.4897 6.76125 49.6558 7.291L43.1138 12.1962C42.2212 11.6 41.1512 11.25 40 11.25C36.8984 11.25 34.375 13.7735 34.375 16.875C34.375 17.7407 34.5879 18.5512 34.939 19.2846L27.4096 26.814C26.6762 26.4629 25.8657 26.25 25 26.25C23.4872 26.25 22.1181 26.8569 21.1065 27.8315L15.5561 25.0566C15.584 24.8306 15.625 24.6084 15.625 24.375C15.625 21.2734 13.1016 18.75 10 18.75C6.89838 18.75 4.375 21.2735 4.375 24.375C4.375 27.4765 6.8985 30 10 30Z" fill="url(#paint0_linear_129_585)"/>
<path d="M62.625 60.25H60.625V20.625C60.625 19.5888 59.7863 18.75 58.75 18.75H51.25C50.2137 18.75 49.375 19.5888 49.375 20.625V60.25H45.625V31.875C45.625 30.8387 44.7863 30 43.75 30H36.25C35.2137 30 34.375 30.8387 34.375 31.875V60.25H30.625V46.875C30.625 45.8388 29.7862 45 28.75 45H21.25C20.2138 45 19.375 45.8388 19.375 46.875V60.25H15.625V39.375C15.625 38.3388 14.7863 37.5 13.75 37.5H6.25C5.21375 37.5 4.375 38.3388 4.375 39.375V60.25H2.375C1.33875 60.25 0.5 61.0887 0.5 62.125C0.5 63.1613 1.33875 64 2.375 64H62.625C63.6613 64 64.5 63.1613 64.5 62.125C64.5 61.0887 63.6613 60.25 62.625 60.25Z" fill="url(#paint1_linear_129_585)"/>
</g>
<defs>
<linearGradient id="paint0_linear_129_585" x1="4.375" y1="37.5" x2="38.9904" y2="-14.4231" gradientUnits="userSpaceOnUse">
<stop stop-color="#4FAABE"/>
<stop offset="1" stop-color="#13237A" stop-opacity="0.898039"/>
</linearGradient>
<linearGradient id="paint1_linear_129_585" x1="0.5" y1="64" x2="43.1606" y2="3.66237" gradientUnits="userSpaceOnUse">
<stop stop-color="#4FAABE"/>
<stop offset="1" stop-color="#13237A" stop-opacity="0.898039"/>
</linearGradient>
<clipPath id="clip0_129_585">
<rect width="64" height="64" fill="white" transform="translate(0.5)"/>
</clipPath>
</defs>
</svg>
