<svg width="120" height="48" viewBox="0 0 120 48" fill="none" xmlns="http://www.w3.org/2000/svg">
<g clip-path="url(#clip0_283_2020)">
<path d="M12.89 0.168518H0V19.3625H12.89V0.168518Z" fill="#D12801"/>
<path d="M15.1394 0.298604H22.6776C23.9516 0.26852 25.216 0.52152 26.376 1.03864C27.3781 1.49874 28.2311 2.22127 28.8409 3.12652C29.3419 3.98822 29.6947 4.92491 29.8851 5.899C30.1439 7.16754 30.2664 8.45917 30.2506 9.75273C30.2639 11.0416 30.1392 12.3282 29.8786 13.5915C29.6888 14.5648 29.3577 15.5063 28.8953 16.3875C28.2945 17.2944 27.4508 18.0219 26.4565 18.4903C25.3093 19.0091 24.0558 19.2623 22.7929 19.2303H15.1394V17.8953H16.4817V1.63579H15.1394V0.298604ZM19.819 17.9145H21.9727C23.0881 17.9145 23.8858 17.7588 24.3658 17.4474C26.0932 16.374 26.9576 13.7828 26.9591 9.67382C26.9591 5.70279 26.1302 3.20686 24.4724 2.18602C24.1363 1.9754 23.7617 1.83056 23.3694 1.75948C22.8606 1.66855 22.3441 1.6257 21.827 1.63152H19.819V17.9145Z" fill="white"/>
<path d="M30.8402 0.298584H37.419V1.63577H35.8961V17.8952H37.419V19.2324H30.8402V17.8952H32.5436V1.63577H30.8402V0.298584Z" fill="white"/>
<path d="M52.5107 16.3896C51.014 18.5692 48.8957 19.6248 46.156 19.5566C43.0871 19.531 40.9514 18.523 39.7491 16.5325V16.5453C38.7759 15.0481 38.2893 12.8245 38.2893 9.87428C38.2893 6.80324 38.8035 4.51986 39.8318 3.02415V3.03695C40.979 1.03792 43.1538 0.0256164 46.3562 2.43228e-05C48.3039 -0.039555 50.2027 0.599808 51.7145 1.80426L52.1387 5.13976H50.5571C50.5698 4.13296 50.1838 3.16055 49.4802 2.427C48.771 1.69905 47.734 1.33152 46.3692 1.32441C44.8449 1.30735 43.6904 2.01824 42.9058 3.45708C42.1211 4.89592 41.6984 7.01935 41.6374 9.82737C41.6984 12.587 42.1059 14.6827 42.8601 16.1145C43.6143 17.5462 44.7173 18.2571 46.1691 18.2471C46.7671 18.2384 47.3579 18.1175 47.9095 17.891C48.4111 17.6806 48.8619 17.3688 49.2322 16.9761V12.0304H47.3439V10.6634H53.6725V12.0112H52.502L52.5107 16.3896Z" fill="white"/>
<path d="M54.0052 0.298584H60.5732V1.63577H59.0503V17.8952H60.5732V19.2324H54.0052V17.8952H55.7065V1.63577H54.0052V0.298584Z" fill="white"/>
<path d="M75.5409 0.298584L76.0456 3.73645H74.6206C74.4074 2.33599 73.9071 1.63577 73.1195 1.63577H70.2217V17.8952H71.5379V19.2324H65.503V17.8952H66.8866V1.63577H64.0019C63.2129 1.63577 62.7118 2.33599 62.4986 3.73645H61.0627L61.5675 0.298584H75.5409Z" fill="white"/>
<path d="M74.5663 19.2324V17.9144H75.9891C76.9289 14.9827 77.8716 12.0453 78.8173 9.10224C79.7629 6.15916 80.6991 3.22461 81.6259 0.298584H83.1052L88.8987 17.9144H90.2845V19.2388H84.5237V17.9144H85.4983L85.0871 16.6562C84.9552 16.2495 84.8225 15.845 84.689 15.4427L84.2887 14.2228C84.1553 13.8119 84.0182 13.3903 83.8775 12.9581H79.1893C79.0479 13.3846 78.9108 13.8112 78.7825 14.2164C78.6541 14.6216 78.5257 15.0268 78.3974 15.4299C78.269 15.833 78.1407 16.236 78.0123 16.6434C77.884 17.0507 77.7491 17.473 77.6077 17.923H78.6171V19.2474L74.5663 19.2324ZM83.4598 11.6017C83.1248 10.615 82.797 9.64181 82.4765 8.68211C82.156 7.72241 81.8325 6.74778 81.5062 5.75822C81.1784 6.76057 80.8637 7.72952 80.562 8.66505L79.6244 11.6017H83.4598Z" fill="white"/>
<path d="M96.1802 17.8952H102.535C103.324 17.8952 103.825 17.19 104.038 15.7796H105.474L104.969 19.2324H91.5006V17.8952H92.8168V1.63577H91.4745V0.298584H97.4637V1.63577H96.1802V17.8952Z" fill="white"/>
<path d="M17.8654 25.1208H16.4296V23.7836H22.6255V25.1208H21.2158V41.0305C21.1983 43.0892 20.8039 44.7072 20.0323 45.8844C19.2331 47.0958 17.8372 47.801 15.8444 48L15.2592 46.7524C16.9996 46.6927 17.8698 44.7683 17.8698 40.9793L17.8654 25.1208Z" fill="white"/>
<path d="M31.0534 23.4722C36.0528 23.4722 38.5525 26.7295 38.5525 33.2441C38.5525 39.7587 36.0571 43.0202 31.0665 43.0288C26.0772 43.0288 23.5826 39.7672 23.5826 33.2441C23.5826 26.721 26.0729 23.4637 31.0534 23.4722ZM31.0534 24.8222C28.3064 24.8222 26.933 27.6295 26.933 33.2441C26.933 38.8587 28.3108 41.6703 31.0665 41.6788C33.8134 41.6788 35.1876 38.8715 35.1891 33.2569C35.1905 27.6423 33.812 24.8307 31.0534 24.8222Z" fill="white"/>
<path d="M50.5289 23.7836H54.88V25.1208H53.5181V34.9054C53.5181 40.2783 51.4151 42.9648 47.2091 42.9648C44.7115 42.9648 42.9262 42.1729 41.8529 40.589C40.9827 39.2838 40.5476 37.3765 40.5476 34.8671V25.1208H39.177V23.7836H45.201V25.1208H43.8957V34.9758C43.8957 37.1583 44.0683 38.6682 44.4135 39.5056C44.953 40.9061 46.101 41.607 47.8574 41.6084C50.5159 41.6084 51.8451 39.3592 51.8451 34.8607V25.1208H50.5289V23.7836Z" fill="white"/>
<path d="M61.0106 41.3738H62.4377V42.711H56.3049V41.3738L57.6472 41.3866V25.1143H56.3049V23.7771H64.4414C65.2292 23.7707 66.0136 23.8785 66.7692 24.097C67.4618 24.2973 68.1171 24.6055 68.7098 25.0098C69.3159 25.4522 69.8132 26.0221 70.1652 26.6776C70.5121 27.3463 70.6875 28.0878 70.6765 28.8379C70.677 29.4241 70.5571 30.0043 70.324 30.5441C70.0798 31.1022 69.7406 31.6157 69.3211 32.0625C68.9314 32.4559 68.4929 32.7999 68.0158 33.0862C67.5434 33.3725 67.0302 33.5881 66.4929 33.726C66.8942 35.0054 67.4717 36.2252 68.2094 37.3516C69.1265 38.766 70.1512 40.1105 71.2747 41.3738H72.7106V42.711H68.4031C67.3426 41.3503 66.3704 39.9258 65.4922 38.4456C64.6371 37.0022 63.8777 35.5062 63.2188 33.967H61.0106V41.3738ZM61.0106 32.5893H64.3631C64.7508 32.5852 65.1288 32.4703 65.4509 32.2587C65.8364 32.0016 66.1716 31.6787 66.4407 31.3054C66.6976 30.9236 66.9092 30.5143 67.0716 30.0856C67.2223 29.6912 67.3011 29.274 67.3044 28.8529C67.3222 27.9122 67.0156 26.9932 66.4342 26.2446C66.1612 25.8829 65.804 25.5904 65.3922 25.3915C64.9805 25.1927 64.5261 25.0932 64.0672 25.1015L61.0215 25.1143L61.0106 32.5893Z" fill="white"/>
<path d="M87.4258 25.1208V42.7174H85.6049L76.7962 27.7546V41.3738H78.1015V42.711H73.9071V41.3738H75.2494V25.1208H73.9071V23.7836H78.1994L85.8703 36.6564V25.1208H84.565V23.7836H88.7616V25.1208H87.4258Z" fill="white"/>
<path d="M89.5273 42.7174V41.393H90.9501C91.89 38.4613 92.8327 35.5246 93.7783 32.583C94.724 29.6413 95.6667 26.7082 96.6065 23.7836H98.0815L103.879 41.393H105.274V42.7174H99.4847V41.393H100.468L100.057 40.1348L99.6588 38.9213C99.5261 38.5203 99.3912 38.113 99.2585 37.7014L98.8473 36.4367H94.1416C93.9966 36.8632 93.861 37.2827 93.7348 37.695C93.6086 38.1073 93.4803 38.5118 93.3497 38.9085L92.9647 40.122C92.8371 40.53 92.7014 40.9565 92.5579 41.4016H93.5695V42.7259L89.5273 42.7174ZM98.4209 35.0867C98.0859 34.1014 97.7581 33.1282 97.4376 32.1671C97.117 31.206 96.7936 30.2328 96.4673 29.2475C96.1395 30.2512 95.8248 31.2202 95.5231 32.1543L94.5789 35.0867H98.4209Z" fill="white"/>
<path d="M110.706 41.3738H117.061C117.851 41.3738 118.352 40.6693 118.564 39.2604H120L119.493 42.711H106.027V41.3738H107.343V25.1208H106V23.7836H111.996V25.1208H110.706V41.3738Z" fill="white"/>
</g>
<defs>
<clipPath id="clip0_283_2020">
<rect width="120" height="48" fill="white"/>
</clipPath>
</defs>
</svg>
