<svg width="36" height="42" viewBox="0 0 36 42" fill="none" xmlns="http://www.w3.org/2000/svg">
<path fill-rule="evenodd" clip-rule="evenodd" d="M22.479 5.43306C16.8345 13.7551 6.372 16.4536 6.372 16.4536C5.98651 16.5522 5.57761 16.4937 5.23526 16.2909C5.06575 16.1905 4.91768 16.0576 4.7995 15.9C4.68132 15.7423 4.59535 15.5629 4.5465 15.3721C4.49765 15.1812 4.48687 14.9826 4.51478 14.7875C4.5427 14.5925 4.60875 14.4048 4.70918 14.2353C4.912 13.893 5.24251 13.6452 5.628 13.5466C5.628 13.5466 15.591 11.0221 20.4615 3.02556L17.511 3.00006C17.1132 2.99648 16.7331 2.83501 16.4543 2.55117C16.1755 2.26734 16.0209 1.88439 16.0245 1.48656C16.0281 1.08874 16.1895 0.708628 16.4734 0.429855C16.7572 0.151082 17.1402 -0.00351959 17.538 6.08311e-05L23.958 0.057061C24.3514 0.0598107 24.7279 0.217307 25.0061 0.495486C25.2843 0.773665 25.4417 1.15017 25.4445 1.54356L25.5 7.81506C25.5036 8.21289 25.349 8.59584 25.0702 8.87967C24.7914 9.16351 24.4113 9.32498 24.0135 9.32856C23.6157 9.33214 23.2327 9.17754 22.9489 8.89877C22.6651 8.61999 22.5036 8.23989 22.5 7.84206L22.479 5.43306ZM9.7275 42.0001H3C2.20435 42.0001 1.44129 41.684 0.87868 41.1214C0.31607 40.5588 0 39.7957 0 39.0001V25.5001C0 24.7044 0.31607 23.9414 0.87868 23.3787C1.44129 22.8161 2.20435 22.5001 3 22.5001H9.7275V42.0001ZM12.7275 21.0526C12.7275 19.3666 14.094 18.0001 15.78 18.0001H20.0955C21.7815 18.0001 23.148 19.3666 23.148 21.0526V42.0001H12.7275V21.0526ZM26.148 15.0526C26.148 13.3666 27.5145 12.0001 29.199 12.0001H33C33.7957 12.0001 34.5587 12.3161 35.1213 12.8787C35.6839 13.4414 36 14.2044 36 15.0001V39.0001C36 39.7957 35.6839 40.5588 35.1213 41.1214C34.5587 41.684 33.7957 42.0001 33 42.0001H26.148V15.0526Z" fill="url(#paint0_linear_129_775)"/>
<defs>
<linearGradient id="paint0_linear_129_775" x1="8.31484e-08" y1="42.0001" x2="41.5059" y2="6.4236" gradientUnits="userSpaceOnUse">
<stop stop-color="#4FAABE"/>
<stop offset="1" stop-color="#13237A" stop-opacity="0.898039"/>
</linearGradient>
</defs>
</svg>
