<svg width="46" height="46" viewBox="0 0 46 46" fill="none" xmlns="http://www.w3.org/2000/svg">
<path d="M20.0379 0.507812C14.8586 0.512311 9.89252 2.57101 6.22912 6.23228C2.56572 9.89356 0.50414 14.8584 0.496635 20.0378C0.50414 25.2171 2.56572 30.1819 6.22912 33.8432C9.89252 37.5045 14.8586 39.5632 20.0379 39.5677C24.8793 39.5677 29.3068 37.7876 32.7253 34.8567L34.426 36.5574L33.3659 37.6232C33.2262 37.7627 33.1154 37.9284 33.0397 38.1108C32.9641 38.2932 32.9252 38.4887 32.9252 38.6862C32.9252 38.8836 32.9641 39.0791 33.0397 39.2615C33.1154 39.4439 33.2262 39.6096 33.3659 39.7491L37.8728 44.256C38.316 44.7155 38.8495 45.0781 39.4398 45.3211C40.0301 45.564 40.6644 45.682 41.3026 45.6676C42.4385 45.6082 43.5107 45.1247 44.3072 44.3127C45.1166 43.519 45.5999 42.4513 45.6621 41.3194C45.678 40.6807 45.5613 40.0456 45.3193 39.4543C45.0773 38.863 44.7153 38.3283 44.2562 37.884L39.7436 33.3714C39.6025 33.2297 39.4346 33.1176 39.2496 33.0417C39.0647 32.9658 38.8664 32.9275 38.6665 32.9292C38.2724 32.9333 37.8958 33.0922 37.6177 33.3714L36.5519 34.4372L34.8512 32.7365C37.896 29.2065 39.5701 24.6994 39.5679 20.0378C39.5679 9.26652 30.8091 0.507812 20.0379 0.507812ZM23.0312 12.5149H29.0404C29.2396 12.5134 29.4371 12.5515 29.6214 12.627C29.8057 12.7026 29.9732 12.814 30.1141 12.9549C30.2549 13.0957 30.3664 13.2632 30.4419 13.4475C30.5174 13.6318 30.5555 13.8293 30.554 14.0285V20.0378C30.554 20.4362 30.3958 20.8183 30.114 21.1C29.8323 21.3818 29.4502 21.5401 29.0517 21.5401C28.6533 21.5401 28.2712 21.3818 27.9894 21.1C27.7077 20.8183 27.5494 20.4362 27.5494 20.0378V17.6511L21.0867 24.0968C20.8054 24.3755 20.4254 24.5318 20.0294 24.5318C19.6334 24.5318 19.2534 24.3755 18.9721 24.0968L17.0333 22.1523L12.0842 27.1014C10.6726 28.6151 8.45601 26.3984 9.95831 24.9812L15.9675 18.972C16.2491 18.6916 16.6303 18.5341 17.0276 18.5341C17.425 18.5341 17.8062 18.6916 18.0878 18.972L20.0266 20.9221L25.4292 15.5195H23.0312C22.6327 15.5195 22.2506 15.3612 21.9689 15.0795C21.6872 14.7978 21.5289 14.4156 21.5289 14.0172C21.5289 13.6188 21.6872 13.2367 21.9689 12.9549C22.2506 12.6732 22.6327 12.5149 23.0312 12.5149Z" fill="url(#paint0_linear_129_1380)"/>
<defs>
<linearGradient id="paint0_linear_129_1380" x1="0.496636" y1="45.6688" x2="45.6576" y2="0.501889" gradientUnits="userSpaceOnUse">
<stop stop-color="#4FAABE"/>
<stop offset="1" stop-color="#13237A" stop-opacity="0.898039"/>
</linearGradient>
</defs>
</svg>
