<svg width="48" height="48" viewBox="0 0 48 48" fill="none" xmlns="http://www.w3.org/2000/svg">
<path fill-rule="evenodd" clip-rule="evenodd" d="M28.1884 46.5L25.4418 36.2496C26.3913 36.0072 27.264 35.5286 27.9787 34.8582C28.3009 34.5564 28.6568 34.4611 29.0867 34.5614C32.0608 35.2551 35.0702 33.5266 35.9699 30.609L39.4214 43.4902L32.9549 41.8229L28.1884 46.5001V46.5ZM21.6235 2.43888C20.729 3.27692 19.5746 3.58629 18.3808 3.30776C16.5979 2.89188 14.796 3.93213 14.2647 5.68423C13.909 6.85723 13.0639 7.70238 11.8909 8.05807C10.1389 8.58935 9.09851 10.3912 9.51439 12.1742C9.79283 13.3679 9.48355 14.5223 8.64551 15.4169C7.39339 16.7535 7.39339 18.8331 8.64551 20.1698C9.48355 21.0644 9.79283 22.2188 9.51439 23.4125C9.09851 25.1955 10.1389 26.9974 11.8909 27.5286C13.0639 27.8844 13.909 28.7295 14.2647 29.9025C14.796 31.6546 16.5979 32.6948 18.3808 32.2789C19.5745 32.0005 20.729 32.3098 21.6235 33.1478C22.9601 34.3999 25.0398 34.4 26.3765 33.1478C27.271 32.3098 28.4254 32.0005 29.6192 32.2789C31.4021 32.6948 33.204 31.6545 33.7353 29.9025C34.091 28.7295 34.9361 27.8844 36.1091 27.5286C37.8611 26.9974 38.9014 25.1955 38.4856 23.4125C38.2071 22.2188 38.5164 21.0644 39.3545 20.1698C40.6066 18.8332 40.6067 16.7536 39.3545 15.4169C38.5164 14.5223 38.2071 13.3679 38.4856 12.1742C38.9015 10.3912 37.8611 8.58935 36.1091 8.05807C34.9361 7.70238 34.091 6.85723 33.7353 5.68423C33.204 3.93213 31.4021 2.89188 29.6192 3.30776C28.4254 3.5862 27.271 3.27692 26.3765 2.43888C25.0398 1.18667 22.9602 1.18676 21.6235 2.43888ZM24 9.01076L26.5856 15.1616L33.2345 15.72L28.1837 20.0798L29.7072 26.5758L24 23.1194L18.2928 26.5758L19.8163 20.0798L14.7655 15.72L21.4144 15.1616L24 9.01076ZM19.8116 46.5L15.0451 41.8228L8.57858 43.4901L12.0301 30.6089C12.9297 33.5265 15.9393 35.255 18.9133 34.5613C19.3431 34.461 19.6991 34.5563 20.0212 34.8581C20.736 35.5285 21.6087 36.0072 22.5582 36.2495L19.8116 46.4999V46.5Z" fill="url(#paint0_linear_129_742)"/>
<defs>
<linearGradient id="paint0_linear_129_742" x1="7.70642" y1="46.5001" x2="50.4605" y2="15.5395" gradientUnits="userSpaceOnUse">
<stop stop-color="#4FAABE"/>
<stop offset="1" stop-color="#13237A" stop-opacity="0.898039"/>
</linearGradient>
</defs>
</svg>
