<svg width="49" height="48" viewBox="0 0 49 48" fill="none" xmlns="http://www.w3.org/2000/svg">
<path fill-rule="evenodd" clip-rule="evenodd" d="M11.3802 41.3919C10.3397 41.3919 9.43991 41.167 8.76504 40.6889L47.9355 1.51845C49.2853 3.43058 48.7229 6.97364 46.2765 11.5852C43.7457 16.3937 39.5278 21.9051 34.3538 27.0791C33.9882 27.4165 33.6508 27.7821 33.2853 28.1195C33.2571 28.1476 33.2009 28.2039 33.1165 28.232L29.236 29.9192L29.8547 30.2004C30.0234 30.2847 30.164 30.4253 30.1921 30.6221C30.2202 30.819 30.1359 31.0158 29.9953 31.1283C22.7404 37.4552 15.5981 41.3919 11.3802 41.3919ZM7.9777 39.8735C6.79668 38.2144 7.07787 35.3462 8.79316 31.522C8.8494 31.4095 8.96188 31.297 9.07436 31.2408L13.2642 29.413L11.099 28.4851C10.9584 28.4007 10.8459 28.2882 10.7896 28.1195C10.7334 27.9789 10.7615 27.8102 10.8459 27.6696C13.461 23.3392 17.1728 18.7276 21.5875 14.3128C25.2431 10.6573 29.1517 7.39543 32.8353 4.92091C32.9759 4.83656 33.1447 4.80844 33.3134 4.83656C33.454 4.89279 33.5946 5.00527 33.6508 5.17399L34.1288 6.24253L35.3661 3.4587C35.4223 3.34622 35.4786 3.26186 35.5911 3.1775C39.1904 1.09666 42.2835 0 44.5331 0C45.6016 0 46.4733 0.253076 47.1482 0.731107L7.9777 39.8735ZM1.22902 48C1.08842 48 0.947821 47.9438 0.835343 47.8313C0.610387 47.6063 0.610387 47.2408 0.835343 47.0158L7.04975 40.8295L7.49967 41.167L7.8371 41.6169L7.9777 41.4763L1.62269 47.8313C1.51021 47.9438 1.36961 48 1.22902 48Z" fill="url(#paint0_linear_129_1387)"/>
<path fill-rule="evenodd" clip-rule="evenodd" d="M47.4012 47.9998H1.22902C0.919702 47.9998 0.666626 47.7467 0.666626 47.4374C0.666626 47.1281 0.919702 46.875 1.22902 46.875H47.4012C47.7106 46.875 47.9636 47.1281 47.9636 47.4374C47.9636 47.7467 47.7106 47.9998 47.4012 47.9998Z" fill="url(#paint1_linear_129_1387)"/>
<defs>
<linearGradient id="paint0_linear_129_1387" x1="0.666626" y1="48" x2="48.6666" y2="0.0152995" gradientUnits="userSpaceOnUse">
<stop stop-color="#4FAABE"/>
<stop offset="1" stop-color="#13237A" stop-opacity="0.898039"/>
</linearGradient>
<linearGradient id="paint1_linear_129_1387" x1="0.666626" y1="47.9998" x2="0.720093" y2="45.7515" gradientUnits="userSpaceOnUse">
<stop stop-color="#4FAABE"/>
<stop offset="1" stop-color="#13237A" stop-opacity="0.898039"/>
</linearGradient>
</defs>
</svg>
