<svg width="48" height="48" viewBox="0 0 48 48" fill="none" xmlns="http://www.w3.org/2000/svg">
<path d="M12.9882 46.5882H2.82352C2.11764 46.5882 1.41176 45.8823 1.41176 45.1765V34.8706C1.41176 34.0235 2.11764 33.4588 2.82352 33.4588H12.7059V45.1765C12.7059 45.6 12.8471 46.1647 12.9882 46.5882ZM32.4706 28.2353V45.1765C32.4706 45.8823 31.7647 46.5882 31.0588 46.5882H16.9412C16.2353 46.5882 15.5294 45.8823 15.5294 45.1765V28.2353C15.5294 27.3882 16.2353 26.8235 16.9412 26.8235H31.0588C31.7647 26.8235 32.4706 27.3882 32.4706 28.2353ZM46.5882 36.7059V45.1765C46.5882 45.8823 45.8823 46.5882 45.1765 46.5882H35.0118C35.1529 46.1647 35.2941 45.6 35.2941 45.1765V35.2941H45.1765C45.8823 35.2941 46.5882 35.8588 46.5882 36.7059ZM35.4353 11.2941L30.7765 15.8118L31.9059 22.3059C32.0471 22.8706 31.7647 23.4353 31.3412 23.7176C30.9176 24 30.2118 24 29.7882 23.8588L24 20.7529L18.2118 23.7176C17.7882 24 17.2235 24 16.8 23.5765C16.3765 23.2941 16.0941 22.7294 16.2353 22.1647L17.3647 15.6706L12.5647 11.2941C12.2823 11.0118 12.1412 10.4471 12.2823 9.88235C12.4235 9.31764 12.8471 9.03529 13.4118 8.89411L19.9059 7.90588L22.7294 2.11764C23.1529 1.12941 24.8471 1.12941 25.2706 2.11764L28.0941 7.90588L34.5882 8.89411C35.1529 9.03529 35.5765 9.31764 35.7176 9.88235C35.8588 10.4471 35.7176 11.0118 35.4353 11.2941Z" fill="url(#paint0_linear_129_682)"/>
<defs>
<linearGradient id="paint0_linear_129_682" x1="1.41176" y1="46.5882" x2="46.6235" y2="1.41178" gradientUnits="userSpaceOnUse">
<stop stop-color="#4FAABE"/>
<stop offset="1" stop-color="#13237A" stop-opacity="0.898039"/>
</linearGradient>
</defs>
</svg>
