<svg width="65" height="64" viewBox="0 0 65 64" fill="none" xmlns="http://www.w3.org/2000/svg">
<path d="M62.0562 0.102728C62.026 0.112353 61.994 0.0991032 61.964 0.110228L1.96397 22.6102C1.3066 22.8575 0.841595 23.4525 0.76097 24.152C0.680345 24.8515 0.99722 25.5362 1.5831 25.9262L14.7372 34.6945L19.5495 54.802C19.5621 54.8549 19.5946 54.897 19.6115 54.9477C20.044 56.2669 21.7051 56.6856 22.6988 55.6919L32.1121 46.2786L46.5831 55.9262C47.6316 56.6294 49.0771 56.1045 49.4267 54.8807L64.4267 2.38073C64.8295 0.967728 63.5031 -0.361772 62.0562 0.102728ZM24.1106 38.242C23.8001 38.5565 23.7066 38.8114 23.5977 39.2079C23.5963 39.2152 23.5931 39.2221 23.5917 39.2294L21.4995 46.837L18.5185 34.3804L47.5591 14.4676L24.1106 38.242ZM13.0756 51.4156C12.3432 50.6832 11.1566 50.6831 10.4242 51.4156L1.04922 60.7906C0.316845 61.523 0.316845 62.7096 1.04922 63.442C1.78172 64.1745 2.9681 64.1745 3.7006 63.442L13.0756 54.067C13.808 53.3346 13.808 52.148 13.0756 51.4156Z" fill="url(#paint0_linear_129_578)"/>
<path d="M13.0756 40.1657C12.3432 39.4333 11.1566 39.4332 10.4242 40.1657L1.04922 49.5407C0.316845 50.273 0.316845 51.4597 1.04922 52.192C1.78172 52.9245 2.9681 52.9245 3.7006 52.192L13.0756 42.817C13.808 42.0847 13.808 40.898 13.0756 40.1657Z" fill="url(#paint1_linear_129_578)"/>
<defs>
<linearGradient id="paint0_linear_129_578" x1="0.499939" y1="63.9914" x2="64.4829" y2="-0.00855397" gradientUnits="userSpaceOnUse">
<stop stop-color="#4FAABE"/>
<stop offset="1" stop-color="#13237A" stop-opacity="0.898039"/>
</linearGradient>
<linearGradient id="paint1_linear_129_578" x1="0.499939" y1="52.7414" x2="13.625" y2="39.6165" gradientUnits="userSpaceOnUse">
<stop stop-color="#4FAABE"/>
<stop offset="1" stop-color="#13237A" stop-opacity="0.898039"/>
</linearGradient>
</defs>
</svg>
