<svg width="65" height="62" viewBox="0 0 65 62" fill="none" xmlns="http://www.w3.org/2000/svg">
<path d="M52.255 17.7089L41.6889 16.1736L36.9635 6.59922C35.1391 2.90197 29.8615 2.9006 28.0363 6.59909L23.3109 16.1736L12.7448 17.7089C8.66482 18.3017 7.03295 23.3203 9.98619 26.1993L17.6319 33.652L15.8271 44.1753C15.1301 48.2385 19.3983 51.3416 23.0494 49.4228L32.4999 44.454L41.9506 49.4228C45.606 51.3441 49.8682 48.2294 49.1726 44.1753L47.3677 33.652L55.0136 26.1993C57.9657 23.3213 56.3366 18.3021 52.255 17.7089ZM17.3413 4.89397L14.7899 1.38248C14.0973 0.429478 12.7632 0.218104 11.8102 0.910728C10.8571 1.60323 10.6458 2.93735 11.3383 3.89047L13.8897 7.40197C14.5827 8.35546 15.9169 8.56609 16.8694 7.87371C17.8225 7.18134 18.0338 5.84709 17.3413 4.89397ZM8.87457 36.3634C8.51044 35.243 7.30719 34.6293 6.18645 34.9938L1.97458 36.3624C0.854082 36.7263 0.240959 37.9299 0.604958 39.0505C0.969707 40.1731 2.17545 40.7838 3.29308 40.4201L7.50507 39.0515C8.62557 38.6877 9.23869 37.484 8.87457 36.3634ZM53.1897 0.910728C52.2367 0.218104 50.9026 0.429353 50.21 1.38248L47.6586 4.89397C46.966 5.84709 47.1774 7.18134 48.1305 7.87371C49.084 8.56646 50.4179 8.35471 51.1102 7.40197L53.6616 3.89047C54.3542 2.93735 54.1429 1.60323 53.1897 0.910728ZM63.0253 36.3624L58.8133 34.9938C57.6928 34.629 56.4893 35.2429 56.1252 36.3634C55.7611 37.4839 56.3742 38.6874 57.4948 39.0515L61.7068 40.4201C62.8251 40.7839 64.0303 40.1725 64.395 39.0505C64.759 37.93 64.1458 36.7265 63.0253 36.3624ZM32.4999 52.9006C31.3218 52.9006 30.3666 53.8557 30.3666 55.0339V59.3636C30.3666 60.5417 31.3218 61.4969 32.4999 61.4969C33.678 61.4969 34.6331 60.5417 34.6331 59.3636V55.0339C34.6333 53.8557 33.6781 52.9006 32.4999 52.9006Z" fill="url(#paint0_linear_129_594)"/>
<defs>
<linearGradient id="paint0_linear_129_594" x1="0.5" y1="61.4969" x2="61.4233" y2="-2.42907" gradientUnits="userSpaceOnUse">
<stop stop-color="#4FAABE"/>
<stop offset="1" stop-color="#13237A" stop-opacity="0.898039"/>
</linearGradient>
</defs>
</svg>
