<svg width="49" height="48" viewBox="0 0 49 48" fill="none" xmlns="http://www.w3.org/2000/svg">
<g clip-path="url(#clip0_129_1394)">
<path fill-rule="evenodd" clip-rule="evenodd" d="M29.1765 43.6152C29.1765 41.9562 27.8316 40.6113 26.1726 40.6113H22.4942C21.6975 40.6113 20.9334 40.9278 20.3701 41.4911C19.8067 42.0545 19.4902 42.8185 19.4902 43.6152C19.4902 45.2742 20.8352 46.6192 22.4942 46.6192H26.1726C27.8316 46.6192 29.1765 45.2742 29.1765 43.6152ZM6.64847 35.8693C7.15022 35.9077 7.75725 35.9297 8.367 35.894C8.74919 37.8319 9.79226 39.577 11.3181 40.8313C12.8439 42.0857 14.7578 42.7714 16.7331 42.7715H17.8792C17.7774 43.3294 17.7772 43.901 17.8785 44.459H16.7331C14.3056 44.459 11.9575 43.5945 10.1096 42.0205C8.26166 40.4465 7.03465 38.2658 6.64847 35.8693ZM5.79009 34.0737C4.26448 33.8165 2.87932 33.0271 1.8804 31.8457C0.881474 30.6642 0.333382 29.1671 0.333374 27.62L0.333374 23.6316C0.333374 21.8958 1.02291 20.2311 2.25029 19.0037C3.47767 17.7763 5.14236 17.0867 6.87815 17.0867H7.31381C8.01019 8.29708 15.3641 1.38086 24.3334 1.38086C33.3026 1.38086 40.6566 8.29708 41.3529 17.0867H41.7886C43.5244 17.0867 45.1891 17.7763 46.4165 19.0037C47.6438 20.2311 48.3334 21.8958 48.3334 23.6316V27.62C48.3334 29.3558 47.6438 31.0205 46.4165 32.2479C45.1891 33.4753 43.5244 34.1648 41.7886 34.1649H39.8573C39.0563 34.1649 38.4069 33.5155 38.4069 32.7145V18.4544C38.4069 10.6818 32.106 4.38086 24.3334 4.38086C16.5607 4.38086 10.2598 10.6818 10.2598 18.4544V32.7145C10.2598 33.28 9.93609 33.7701 9.46378 34.0092C8.16366 34.4604 6.14737 34.134 5.79009 34.0737Z" fill="url(#paint0_linear_129_1394)"/>
</g>
<defs>
<linearGradient id="paint0_linear_129_1394" x1="0.333374" y1="46.6192" x2="45.4924" y2="-1.29668" gradientUnits="userSpaceOnUse">
<stop stop-color="#4FAABE"/>
<stop offset="1" stop-color="#13237A" stop-opacity="0.898039"/>
</linearGradient>
<clipPath id="clip0_129_1394">
<rect width="48" height="48" fill="white" transform="translate(0.333374)"/>
</clipPath>
</defs>
</svg>
