<svg width="46" height="44" viewBox="0 0 46 44" fill="none" xmlns="http://www.w3.org/2000/svg">
<path d="M31.3981 19.8555L27.7309 23.4363C27.6157 23.5419 27.5581 23.7051 27.5869 23.8587L28.4509 28.9083C28.4659 28.9961 28.4563 29.0863 28.423 29.169C28.3897 29.2516 28.3341 29.3233 28.2624 29.3761C28.1906 29.4289 28.1056 29.4607 28.0168 29.4679C27.9281 29.4752 27.839 29.4576 27.7597 29.4171L23.2189 27.0267C23.15 26.9935 23.0745 26.9763 22.9981 26.9763C22.9216 26.9763 22.8462 26.9935 22.7773 27.0267L18.2461 29.4171C17.8909 29.5995 17.4781 29.3019 17.5453 28.9083L18.4093 23.8587C18.4242 23.7827 18.4197 23.7041 18.3962 23.6303C18.3727 23.5565 18.331 23.4897 18.2749 23.4363L14.6077 19.8555C14.3197 19.5771 14.4829 19.0971 14.8765 19.0395L19.9453 18.3003C20.0989 18.2811 20.2333 18.1851 20.3005 18.0411L22.5661 13.4523C22.7485 13.0875 23.2573 13.0875 23.4301 13.4523L25.6957 18.0411C25.7629 18.1851 25.9069 18.2811 26.0605 18.3003L31.1293 19.0395C31.2176 19.0523 31.3006 19.0895 31.3689 19.1469C31.4372 19.2043 31.4882 19.2796 31.5162 19.3643C31.5441 19.4491 31.5478 19.54 31.527 19.6267C31.5061 19.7135 31.4615 19.7927 31.3981 19.8555Z" fill="url(#paint0_linear_129_1403)"/>
<path d="M45.32 22.0004C45.32 19.7156 42.7472 17.8628 42.0781 15.8007C41.384 13.6637 42.3526 10.6589 41.0586 8.87908C39.7501 7.08292 36.585 7.08196 34.7878 5.77444C33.009 4.4794 32.0365 1.46116 29.8995 0.767085C27.8365 0.0979645 25.2848 1.94596 23 1.94596C20.7152 1.94596 18.1635 0.0979645 16.1005 0.767085C13.9635 1.46116 12.992 4.4794 11.2122 5.77444C9.416 7.08196 6.24896 7.08196 4.9424 8.87908C3.6464 10.658 4.616 13.6637 3.92192 15.8007C3.25184 17.8628 0.68 19.7156 0.68 22.0004C0.68 24.2852 3.2528 26.138 3.92192 28.2C4.616 30.337 3.64736 33.3418 4.94144 35.1216C6.24992 36.9178 9.41504 36.9188 11.2122 38.2263C12.991 39.5213 13.9635 42.5396 16.1005 43.2336C18.1635 43.9028 20.7142 42.0548 23 42.0548C25.2848 42.0548 27.8365 43.9028 29.8995 43.2336C32.0365 42.5396 33.008 39.5213 34.7878 38.2263C36.584 36.9188 39.751 36.9178 41.0576 35.1216C42.3536 33.3428 41.384 30.337 42.0781 28.2C42.7482 26.138 45.32 24.2861 45.32 22.0004ZM23 35.8973C15.3373 35.8973 9.10208 29.6631 9.10208 22.0004C9.10208 14.3367 15.3373 8.10244 23 8.10244C30.6627 8.10244 36.8979 14.3367 36.8979 22.0004C36.8979 29.6631 30.6627 35.8973 23 35.8973Z" fill="url(#paint1_linear_129_1403)"/>
<defs>
<linearGradient id="paint0_linear_129_1403" x1="14.4616" y1="29.4721" x2="30.737" y2="12.4124" gradientUnits="userSpaceOnUse">
<stop stop-color="#4FAABE"/>
<stop offset="1" stop-color="#13237A" stop-opacity="0.898039"/>
</linearGradient>
<linearGradient id="paint1_linear_129_1403" x1="0.68" y1="43.3796" x2="43.3989" y2="-1.21901" gradientUnits="userSpaceOnUse">
<stop stop-color="#4FAABE"/>
<stop offset="1" stop-color="#13237A" stop-opacity="0.898039"/>
</linearGradient>
</defs>
</svg>
