<svg width="65" height="64" viewBox="0 0 65 64" fill="none" xmlns="http://www.w3.org/2000/svg">
<path d="M60.2724 20.2234C58.9029 18.8529 56.7257 18.7668 55.2535 19.9664C55.0406 20.1399 55.2055 19.987 51.9639 23.2287L60.3784 31.6433L63.4025 28.6569C64.8646 27.1948 64.8646 24.8158 63.4025 23.3535L60.2724 20.2234ZM34.7084 40.6435L29.7586 51.2503C29.5959 51.5991 29.5444 51.9895 29.6112 52.3685C29.6779 52.7476 29.8597 53.0969 30.1319 53.369C30.404 53.6412 30.7534 53.823 31.1324 53.8898C31.5114 53.9565 31.9019 53.9051 32.2506 53.7423L42.8574 48.7924C43.277 48.5965 42.0066 49.7855 57.7101 34.2782L49.3122 25.8802C33.7425 41.45 34.9081 40.2157 34.7084 40.6435Z" fill="url(#paint0_linear_129_570)"/>
<path d="M46.0162 51.0964C45.5585 51.5487 45.0264 51.9189 44.4431 52.1908L33.8364 57.1406C31.7506 58.114 29.2025 57.7434 27.4804 56.0209C25.814 54.3546 25.3639 51.8003 26.3604 49.6645L31.3102 39.0575C31.5872 38.4634 31.9662 37.9224 32.4299 37.4591L48.3757 21.5133V5.625C48.3757 2.52338 45.8524 0 42.7507 0H6.12575C3.02412 0 0.500748 2.52338 0.500748 5.625V58.375C0.500748 61.4766 3.02412 64 6.12575 64H42.7507C45.8524 64 48.3757 61.4766 48.3757 58.375V48.7661L46.0162 51.0964ZM10.5009 12.125H38.5009C39.5364 12.125 40.3759 12.9645 40.3759 14C40.3759 15.0355 39.5364 15.875 38.5009 15.875H10.5009C9.46537 15.875 8.62587 15.0355 8.62587 14C8.62587 12.9645 9.46537 12.125 10.5009 12.125ZM10.5009 22.125H32.5009C33.5364 22.125 34.3759 22.9645 34.3759 24C34.3759 25.0355 33.5364 25.875 32.5009 25.875H10.5009C9.46537 25.875 8.62587 25.0355 8.62587 24C8.62587 22.9645 9.46537 22.125 10.5009 22.125ZM8.62587 34C8.62587 32.9645 9.46537 32.125 10.5009 32.125H26.5009C27.5364 32.125 28.3759 32.9645 28.3759 34C28.3759 35.0355 27.5364 35.875 26.5009 35.875H10.5009C9.46537 35.875 8.62587 35.0355 8.62587 34Z" fill="url(#paint1_linear_129_570)"/>
<defs>
<linearGradient id="paint0_linear_129_570" x1="29.5827" y1="53.9182" x2="64.3739" y2="19.0021" gradientUnits="userSpaceOnUse">
<stop stop-color="#4FAABE"/>
<stop offset="1" stop-color="#13237A" stop-opacity="0.898039"/>
</linearGradient>
<linearGradient id="paint1_linear_129_570" x1="0.500748" y1="64" x2="61.8957" y2="18.0737" gradientUnits="userSpaceOnUse">
<stop stop-color="#4FAABE"/>
<stop offset="1" stop-color="#13237A" stop-opacity="0.898039"/>
</linearGradient>
</defs>
</svg>
