<svg width="48" height="48" viewBox="0 0 48 48" fill="none" xmlns="http://www.w3.org/2000/svg">
<path d="M41.79 17.34C41.6293 17.184 41.5014 16.9975 41.4138 16.7915C41.3263 16.5854 41.2808 16.3639 41.28 16.14V11.4C41.2784 10.1592 40.7848 8.96978 39.9075 8.09245C39.0302 7.21512 37.8407 6.72155 36.6 6.71996H31.86C31.6361 6.71904 31.4147 6.67346 31.2086 6.58589C31.0026 6.49832 30.8161 6.37051 30.66 6.20996L27.33 2.87996C26.4448 2.00061 25.2477 1.50708 24 1.50708C22.7523 1.50708 21.5552 2.00061 20.67 2.87996L17.34 6.20996C17.184 6.37051 16.9975 6.49832 16.7914 6.58589C16.5854 6.67346 16.3639 6.71904 16.14 6.71996H11.4C10.1593 6.72155 8.96984 7.21512 8.09251 8.09245C7.21519 8.96978 6.72161 10.1592 6.72002 11.4V16.14C6.71927 16.3639 6.67377 16.5854 6.58618 16.7915C6.4986 16.9975 6.37071 17.184 6.21002 17.34L2.88002 20.67C2.00067 21.5552 1.50714 22.7522 1.50714 24C1.50714 25.2477 2.00067 26.4448 2.88002 27.33L6.21002 30.66C6.37071 30.8159 6.4986 31.0024 6.58618 31.2085C6.67377 31.4145 6.71927 31.636 6.72002 31.86V36.6C6.72161 37.8407 7.21519 39.0301 8.09251 39.9075C8.96984 40.7848 10.1593 41.2784 11.4 41.28H16.14C16.3639 41.2809 16.5854 41.3265 16.7914 41.414C16.9975 41.5016 17.184 41.6294 17.34 41.79L20.67 45.12C21.5533 46.003 22.7511 46.499 24 46.499C25.249 46.499 26.4468 46.003 27.33 45.12L30.66 41.79C30.8161 41.6294 31.0026 41.5016 31.2086 41.414C31.4147 41.3265 31.6361 41.2809 31.86 41.28H36.6C37.8407 41.2784 39.0302 40.7848 39.9075 39.9075C40.7848 39.0301 41.2784 37.8407 41.28 36.6V31.86C41.2808 31.636 41.3263 31.4145 41.4138 31.2085C41.5014 31.0024 41.6293 30.8159 41.79 30.66L45.12 27.33C45.9994 26.4448 46.4929 25.2477 46.4929 24C46.4929 22.7522 45.9994 21.5552 45.12 20.67L41.79 17.34ZM31.05 21.06L23.07 29.07C22.7811 29.3399 22.4004 29.4901 22.005 29.4901C21.6096 29.4901 21.2289 29.3399 20.94 29.07L16.95 25.05C16.6762 24.7705 16.5237 24.3943 16.5256 24.0031C16.5276 23.6118 16.6839 23.2372 16.9606 22.9605C17.2372 22.6839 17.6119 22.5276 18.0031 22.5256C18.3944 22.5236 18.7706 22.6761 19.05 22.95L21.99 25.89L28.95 18.93C29.2308 18.6558 29.6076 18.5024 30 18.5024C30.3924 18.5024 30.7693 18.6558 31.05 18.93C31.1924 19.0684 31.3057 19.2339 31.383 19.4169C31.4603 19.5998 31.5001 19.7964 31.5001 19.995C31.5001 20.1936 31.4603 20.3901 31.383 20.5731C31.3057 20.756 31.1924 20.9216 31.05 21.06Z" fill="url(#paint0_linear_129_806)"/>
<defs>
<linearGradient id="paint0_linear_129_806" x1="1.50714" y1="46.499" x2="46.4991" y2="1.51326" gradientUnits="userSpaceOnUse">
<stop stop-color="#4FAABE"/>
<stop offset="1" stop-color="#13237A" stop-opacity="0.898039"/>
</linearGradient>
</defs>
</svg>
